<svg xmlns="http://www.w3.org/2000/svg" id="Layer_1" version="1.1" viewBox="0 0 359.1 1021.3"><defs><style>.st0{fill:#c47258}</style></defs><path d="M7.9 241.8c.8 4 2.2 8.5 2.9 13.2 1.1 8 2.8 16.8 5.2 26.4.3 1.2.5 2.3.6 3.6 0 .2.1.3.1.3s3.7 10.2 4.8 13.2v.3c.1.3.2.5.2.5 4.9 12.2 10.6 24.1 17.1 35.8 3.9 7 8.3 14.5 13.1 22.6.8 1.3 1.3 2.5 1.4 3.4 2.5 13.8 4.9 27.7 9.3 40.2 2.4 6.8 5.6 11.2 12.9 12.3 2.1.3 3.6.4 4.4.3.3 0 .5.2.5.5 0 2.4.4 7.4 1.1 15.1.2 2.8.7 5.3 1.5 7.7.3.9.3 1.8 0 2.7-2 6.7-2.8 13.4-2.5 20.2 0 1.2-.2 2-.7 2.9-.3.5-.4 1-.4 1.5.2 12 1.2 24 3 36.1 2.1 14.8 6.8 30.5 14.6 43.3 4.8 7.9 7.3 11.9 7.4 12.2.2.3.3.7.4 1l20.2 59.1c.1.3-.1.7-.5.7-6.3 0-11.8-2.9-17.9-3.7-8.8-1.1-17.3.7-25.6 3.2-.3 0-1.1.5-2.4 1.1-.2.1-.4.2-.6.4-2.4 1.7-3.9 2.6-4.7 2.8-5.1 1-10.6 2.8-16.4 5.2-4.5 1.9-5.9 5.8-6.8 10.2-1.8 9-1.5 17.8-1.6 27.1 0 .3.1.8.3 1.4.3.6.7.9 1.2.9 1.7 0 3.5 0 5.2.3 2.8.6 5.8.9 8.8.7.3 0 .5.3.4.5-.6 2.1-1.2 4.5-1.7 6.9-.6 2.7-2 5.9-3.2 8.2 0 .1-2 3.7-5.7 10.7-7 13.1-6.2 27.9-2 42.1 3 10.5 7.1 20.4 12.3 29.6 3.2 5.7 7.8 12.6 15.3 10.2 5.9-1.9 11.2-4.7 12.5-11.1.4-2.1.7-4.5.9-7.4.4-7.1.6-12.9.7-17.5 0-1.4.2-2.7.5-4.1.8-3.5 2.2-8.9 3.5-14.5.8-3.4 2.2-6.4 4.4-9.1 3-3.7 5.7-7 8-9.8 3.4-4.2 6.7-7.1 10.5-10.9.5-.5 1.2-.5 1.8-.2l9.3 6.3c2.5 1.7 5.1 2.5 8.5 1.9 2.5-.4 5-.7 7.4-.8.2 0 .4.2.4.4-.2 1.1 0 3 .3 5.6.4 2.8 1 6.4 1.6 10.8.5 3.2.1 6.7.5 10 0 .8.1 3.4.1 7.5 0 3.8.2 7.3.7 10.4 1.8 11.1 4.7 22.5 8.8 34.2 2.7 7.7 4.6 13.1 5.8 16.1.3.7.3 1.4.2 2.1-.7 3-1 6.1-.2 9.4 2.5 10.6 7.7 22.7 10.2 29.6 1.4 3.9 2.8 7.5 4.3 10.8 4.2 9.8 7.4 19.1 9.9 28.9 1.2 4.9 2.9 9.8 4.9 14.8.9 2.3 1.3 4.8 1.2 7.4-.2 6-.4 10 4.5 13.1 1.5.9 5.5 1.3 5.4 4.1v.2c0 .2 0 .3-.2.5-.6 1.8-2.1 5.9-2.6 7.8v.2l-1.2 5.8c-.2.9-1.1 1.3-1.9.9-1.5-.9-3.9-2.5-5.4-1.7-.4.2-.6.6-.4 1.2.4 1.4.6 2.3.7 2.6 0 .2 0 .5-.1.7-.7 1-4.5 3.4-2.2 5.4.7.6 1.4.8 2.3.8.2 0 .4.2.3.4-.3 1.4-.2 2.6.3 3.8.5.6 1.1.8 1.8.6l2-1.1h.6c1 .6 1.6 1.4 1.8 2.4 1.9 8.1 4.2 15.6 7 22.6 1.1 2.6 2.4 5.3 4.1 8 3.6 5.8 9.4 6.9 15.8 8.8 1.2.4 2.9.5 4.9.5 3.4 0 5.9-.2 7.4-.3.3 0 .6 0 .9.2 2.6 1.1 5.1 4.5 6.7 6.2 4.5 5.3 10.3 7.4 17 9.3 11 3.1 22.5 4.3 34.2 3.7 13.7-.7 28-2.1 41.2-6.5 3.5-1.2 6.6-3.4 5.9-7.6-.2-1.4-1.5-2.1-2.6-2.6-.6-.3-1.1-.9-1.2-1.6-.5-4.8-3-8.6-7.4-11.2-4.8-2.8-9.8-5.1-14.3-8-9.2-6-16.7-12.1-22.5-18.5-4.7-5.2-9.5-11.3-14.4-18.4-1.1-1.6-1.7-3.1-1.9-4.5-.4-3-1.1-5.7-2-8-1.2-3-3-5.4-5-8.3h-.1c-1.2-1.5-2-3.5-2.3-4.6v-.2c0-1.8.1-3.6.4-5.5.7-4.9 1-10.1.9-14.8 0-.9-.2-1.7-.6-2.5-1.2-2.3-2.4-4.7-3.7-7-5.4-10-8-21.3-9.7-32.6-2.9-19-4.9-31.4-6-37.3-1.4-7.5-3.2-13.6-10.2-17-.4-.2-.6-.5-.7-.9-2.6-16.1-6.7-31.7-12.4-46.6l-.3-1.2c-.2-1.6-.4-2.7-.4-3.1-.3-2.7.4-8.5-.7-11.9 0-.2-.6-2.1-1.6-5.7-1.2-4.1-1.7-8.8-1.2-13.8.2-1.7.4-3.9.5-6.8 0-.7.5-.9 1.3-.6 2.3-.4 4.2-.2 5.5.3 1.4-.4 3.5-.7 6.3-.7 28.2-.4 46.7-.5 55.4-.5 8 0 14.5-.4 19.8-1.2 6.4-1 12.5-3.2 18.4-6.3 11-5.9 16.9-15.1 17.7-27.4.5-8.4-.2-16.5-2.2-24.3-2-7.9-4.7-16.2-8.1-25-4.5-11.7-7.5-19.4-9.1-23-2.3-5.4-6-13.7-11.2-24.9-11-23.8-21.9-41.2-36.2-62.7-2-3-3.7-5.3-5-6.9-.4-.4-.7-.9-.9-1.4-1-2.2-1.7-3.5-2.1-4-1.2-1.4-2.7-3-4.6-4.8-.6-.6-1-1.4-1.1-2.3-.5-4.9-2.8-8.8-7-11.7-.6-.4-1-1.1-1.2-1.8-.8-4.4-2.7-8.2-5.7-11.3-.6-.6-.9-1.4-.9-2.2 0-3.1.4-6.1-1.1-7.8-.4-.5-1.6-1.5-3.4-3.1-.5-.4-.8-1-.9-1.7-.4-4.3-1.4-8.6-3-12.7-.9-2.3-2.5-4.7-3.6-6.7 0-.2-.1-.4 0-.7 2-7 1.7-13.6-.9-19.9-.6-1.4-1.7-2.8-3.4-4.3-.2-.1-.2-.4 0-.6 3-2.2 5.9-4.8 6.8-8 1-3.4.3-7.6-1.2-10.7-1.2-2.5-2.7-5.4-4.6-8.7 0-.2 0-.4.2-.4 10-.8 16.3-1.3 19-1.6 11.5-1.4 22.5-3.6 32.8-6.7 3.6-1.1 6.4-2.9 8.3-5.4 5.4-7.2 6.2-17.2 5.2-26-1.6-12.9-5.1-26.1-11.3-37.4-5-9.1-11.4-18.2-19-27.2-4.2-5-7.8-9.1-10.7-12.4-.2-.2-.3-.4-.4-.7-.7-1.8-1.1-4.4-2.2-6.3-1.8-3.2-4.5-6.3-6-8.7-.2-.3-.4-.8-.5-1.2 0-.4-.5-2.3-1.2-5.8-.4-1.7-1.1-3.8-2.2-6.2-3.1-6.7-6.5-13.2-10.3-19.7-8.1-13.9-19.8-25.4-36.1-27.7-6.1-.9-11.3-1.4-16.6-3.2-8.6-2.8-13.9-4.5-15.9-5.1-.6-.2-1-.8-1-1.5.3-3 .7-6.1 1.1-9.4.3-2.7.9-5.1 1.6-7 .8-1.8 1.9-4 3.6-6.3 1.6-2.3 1.8-8 1.3-10.6 0-.2 0-.3.3-.3 3.5.2 6.2-1.1 8-3.9 1.4-2 1.4-4.3.3-6.3-2.3-4.4-3.8-9-4.6-14.1 0-.3.2-.5.5-.4 2 .7 3.9.6 5.8-.2.3-.7.2-1.3 0-1.8-.1-.2-.3-.3-.5-.3l-5.4-.6c-.9-.1-1.6-.8-1.8-1.7l-.3-1.8c0-.3-.3-.5-.6-.5-.8 0-1.3.7-1.5 2 0 7.3 1.7 14.2 5 20.7.6 1.3.6 2.4-.2 3.4-2.3 2.7-5.5 2.8-8.8 1.5-3.2-1.2-5.3-2.2-8-2.1-.3 0-.5.1-.6.3-.1.1-.2.4-.3.7 0 .2-.3.4-.5.3-.8-.3-1.3-.5-1.5-.8-1.3-1.4-.7-3.5.9-4.5.3-.2.8-.5 1.5-1 .6-.4.8-1.2.4-1.8-.4-.7-1.2-.9-1.8-.5-2.8 1.4-5.2 4.1-3.8 7.4 1.1 2.9 2.9 3.7 6.1 3.6 1.5 0 6.3.6 7.2 2 1.2 1.8 1.3 3.6.5 5.5-.1.3-.4.5-.6.6-.7.3-1.3.7-1.7 1.2.8.1 1.3.1 1.8 0 .4-.1.8.3.5.7-.5.7-.8 1.4-.9 2.1 0 .2-.3.3-.5.2-.2-.1-.3-.3-.4-.5 0-.1-.2-.3-.3-.3-.9-.4-2.1-.8-3.4-1.1-2.1-.4-5.3-.9-9.4-1.5-2.8-.4-5.6-.2-8.5.6-.5.1-.7.7-.5 1.1.3.5.8 1 1.5 1.5 5.7 0 11.4.7 17.1 1.7h2.1c.7 0 1 .1 1 .4-.4 3.3-2.2 5-5.5 5-1.4 0-2.7-.2-4-.5-1 0-1.8.3-2.4.8-.4.4-.4 1 0 1.4 2.5 2.5 6.7 1.8 9.4.1 0 0 .2 0 .1.1l-1.5 2.2c-.3.4-.4.8-.4 1.3l-.3 9.7c0 .4-.3.7-.7.6 0 0-.2-.2-.5-.7 0-.1-.2-.2-.3-.1-.1 0-.2.2-.2.3.3 1.2.1 2-.7 2.4-.2.1-.4 0-.3-.3.4-1.1.2-2-.6-2.6-.2-.2-.6 0-.6.3.3 1.8-.2 3.2-1.5 4.1-.2.1-.4 0-.3-.3 1.3-1.8 1.3-3.6.2-5.4-.2-.3-.6-.2-.6.2v3.2s0 .2-.2.2h-.2c0-.8-.4-1.3-.8-1.8-.2-.2-.6 0-.6.2v.2l.6 2.2c0 .2 0 .4-.2.6-.2.2-.4.3-.6.4-.2 0-.4-.1-.4-.3.2-1 .2-2 0-3v-4c0-.1-.2-.3-.3-.3-.2 0-.3 0-.3.2l-.7 2.7c0 .2-.1.3-.2.5l-1.3 1.8c-.1.2-.3.3-.4.5l-3.2 2.7c-.2.1-.4.2-.6.2h-1c-.2 0-.3-.2-.2-.4l2.8-2.5h.5c1.7-1.2 2.4-2.8 2.3-4.8 0-.1-.1-.2-.3-.2-.1 0-.2.1-.3.2 0 1.8-.8 3.3-2.2 4.6-.1.1-.3.1-.4 0-.1 0-.1-.2 0-.4.8-1.4 1.6-2.9.9-4.2-.1-.2-.4-.1-.4.1v1s0 .1-.1.2l-3.4 6.1c-.1.2-.3.3-.5.2-4.3-1-7.7-3.2-11.5-5.9-1.6-1.2-3-2.3-4.2-3.5-3.8-3.4-7.3-6.8-10.5-10-3.1-3.1-5.8-6.3-8-9.8-3.4-5.3-3.9-10.4-4.2-16.4 0-1.6 0-3.1.5-4.5l.3-4.4c0-.2-.2-.4-.4-.4-.4 0-.8.2-1.3.4-1.3 3.4-2.1 5.8-2.2 7.2-.3 4.1 0 8.1.7 12.1.6 3.2 1.9 5.7 3.7 8.2 7.3 10.2 16.1 18.2 26.4 26.2 0 0 .1.2 0 .3l-6.5 12.4c.9 1.1 1.7 1.6 2.3 1.6.7-.4 1.3-1 1.8-1.9 2.5-5 4-8.2 4.7-9.6.3-.6 1-.8 1.5-.6 2.7 1.1 6 1.5 5.2 5.4-1.3 6.7-2.6 14.1-5.4 20.8 0 .3-.4.3-.6.2-5.3-4.4-10.9-8.4-16.8-11.8-.6-.4-1.1-.9-1.4-1.6-4.7-10.7-9-21.5-12.8-32.2-.2-.5-.7-.7-1.2-.7h-.3c-.7.2-1.1.9-.9 1.5 3.2 9.6 6.9 19.2 11.2 28.8 0 .2.2.3.3.5l1.6 1.7v.2h-.2c-4.5-3.7-9-7.7-13.5-12.2-9.4-9.3-18.1-17.8-26-25.5-.3-.3-.4-.8-.1-1.2 1.4-2 2.5-4.3 3.3-6.8 1.8-5.7 3.1-11.2 4-16.7.4-2.4 1.1-3.8 2.3-6.6 0-.2.3-.2.5 0 2.2 2.3 4.8 4.4 8 6.3 2.1 1.2 6.8 2.3 7.4-1.3.1-.7-.6-1.3-1.3-1-1.5.6-2.9.4-4.3-.5-4.2-2.8-7.6-5.9-10.3-9.5-1.6-2.2-2.9-5.4-3.8-9.6v-1c.2-3.1.5-5.5 1-7.2 1.3-5.3 6.3-10.5 12.2-7.7 2.9 1.4 6.6 6.4 7.9 9.5 1.8 4.4 3 8.9 3.5 13.3 0 .7.7 1.3 1.4 1.2 2.7 0 5-.5 7.1-1.2.2 0 .4.2.2.3-1.6 1.4-3.3 1.4-6 1.5-.3 0-.5 0-.6.3v.7c.2.3.4.6.8.9l5.3-1.4c.5-.1.9-.4 1.2-.8 1.8-2.6 3-5.2 3.7-8.4.2-1 .5-2.1.9-3.2.2-.4.4-.8.8-1.1.4-.4.8-.8 1-1.3.2-.3.4-.7.7-.9 2.1-1.7 4.1-3.2 5.8-4.5.9-.7 1.7-1.6 2.2-2.7.3-.6 1-.9 1.7-.8l7.4 1.7c6 .9 10.6 1.9 13.7 3 4.1 1.4 8.1 2.8 12.2 4.1 2.7.9 5.2 1.9 7.5 3.2.3.1.5.3.8.3l6.6 1.7v.2s-.2.2-.3.1c-1.5-.3-2.8-.5-3.8-.4-1 .1-1.6 1.2-1.2 2.2.6 1.5 3.4 2.2 5 2.7.3 0 .6.1.9 0 2-.2 4.6 1.3 5.5-1.5-.6 0-1.1-.3-1.4-1.1 0-.2 0-.3.2-.3 5 .9 9.5 1.5 13.5 1.8 1.6.1 5.2.5 10.8 1.2 7.8 1 15.4 1 22.6-1.4 2.6-.9 6-2.8 6.6-5.6 1.9-9-4.9-16-12.2-20.8-3.6-2.3-6.9-4.1-10.2-5.3-7.2-2.7-15.5-3.7-24.2-5.1-.6 0-1.1-.7-1.1-1.3.4-11.5.2-23.4-2.8-34.4-1.9-7-6.1-11.8-12.7-14.3-3.5-1.3-7.2-2.4-11.2-3.3-10.5-2.3-17.6-3.8-21.2-4.4-2.6-.4-7.5-.9-14.8-1.4-4.3-.3-9.1-.1-14.2.6-7.3 1-11.9 1.8-14.1 2.2-5.1 1.2-9.7 3.2-14 6-2.6 1.7-4.6 4-6.1 6.8-.8 1.5-1.3 3.9-1.6 7.3-.3 3-.9 6.9-1.8 11.7 0 .1-.1.3-.3.3-5.3.7-10.3.6-14.8 1.6C57 43.7 45.2 48.3 36.6 59c-7.5 9.3-3.8 19.1 6.4 23.9 7.6 3.6 16.2 5.9 25.8 6.7 2.9.3 6.7.5 11.6.7.2 0 .4.2.4.4.4 4.4.7 7.8 1.2 10.2.8 4.5.7 8.7-.5 12.5-.5 1.7-.7 2.8-.7 3.3.3 2.8 1.6 5 3.1 7.2.3.5.4 1.3.1 2.4.3.5.4 1.3.3 2.5 0 .4-.2.8-.6 1-.1 0-.1.3 0 .4l.4.2c.3.1.2.5 0 .5-1.1 0-2.7-.2-4.8-.6-5.5-.9-8.9 2.2-11.2 6.7-2.8 5.5-5.4 10.5-7.8 15-.2.3-.2.7-.2 1.1.4 2.3 3.1 3.8 0 5.9-11.6 7.6-22.7 16-32.1 26.2-2.3 2.5-4.8 4.9-7.6 7.3-1.2 1.1-3.1 4.6-4.8 7.3-.2.5-.5 1-1 1.7-.2.2-.3.4-.5.6-8.3 11-9.2 24.8-6.5 38.4Zm191.2 692.1v.2c-.8 1-1.9 1.3-2.6.8l2.6-3.6c.7.5.7 1.7 0 2.6Zm2.8 5.5c-.3 0-.6-.6-.9-1.4-.2-.9-.2-1.6 0-1.7.3 0 .6.6.9 1.4.2.9.2 1.6 0 1.7ZM64.5 162.5l5.3 9.9c0 .1 0 .3-.1.4-.9.4-1.6.9-2.3 1.5-7.5 6.4-14.7 13.2-21.7 20.5-2 2.1-4.9.2-6.7.3-5.8.2-10.1.5-12.9.8h-.4l-1.9.7c-.2 0-.4-.2-.2-.3 12.2-12.5 20.4-20.4 31.5-27.7 3.5-2.3 6.4-4.4 8.7-6.2.2-.2.5 0 .6.1Zm133.1-93.8c0 .2 0 .3-.1.5h-.1c-10.9-1.6-23.3-3.2-37.3-4.8-2.5-.3-4.1-.8-6.1-2-16.3-10.2-33.9-18.9-53.2-20.9-5-.5-8.6-.8-10.6-.9-.2 0-.3-.2-.3-.4l1.4-5.9v-.2c-.2-5.6.6-11.7 5.2-15.4 3.1-2.5 6.9-4.4 11.2-5.5 15.3-3.9 30.7-4.5 46.3-1.8 8.4 1.5 16 3.1 22.9 4.8 6.9 1.7 13.1 4.2 16.2 10.6.7 1.5 1.5 4.5 2.3 9.2.8 4.6 1.2 7.7 1.2 9.5 0 7.4.3 15.2 1 23.1Zm1.6 13.7-18-2.2c-1-.3-2.1-.8-2.9-1.4-3-2-8-5.5-14.9-10.3v-.2s.1-.1.2 0c1.9.5 3.4.9 4.5 1 10.2 1.3 20.5 2.6 30.6 4 .3 0 .5.3.4.5l-.4 7c0 .2 0 .3.2.4l.7.8c.2.2 0 .5-.2.5Zm-3.9 7.3s-2.7-1.7-8.2-5.1 20.4 2.7 20.4 2.7c1 .1 2-.5 2.2-1.5.2-1-.5-2-1.4-2.1l-6.1-1c-.3 0-.5-.3-.5-.6l1.1-9.9-.8-2.6c0-.3.2-.6.5-.5 4.7.6 9.4 1.4 13.9 2.3 8.9 1.7 16.6 5.4 23.1 11 .6.5 1 1 1.2 1.4 3.2 3.2 7.3 10.9 1.1 13.5-3.8 1.6-7.8 2.4-11.8 2.3-3.1 0-6.9 0-9.6-.3-8.7-1-17.6-4.4-25.1-9.4Zm-72 3.4c-.5.2-.9.2-1.3 0-.2-.1-.1-.5.1-.5 1.3.1 2.7-.2 4.1-1 1.6-.9 2.8-1.4 3.6-1.4v.6c-3.9 1.5-6 2.3-6.4 2.4Zm-1 8.9 4.5-3.7c.2.3-.6 1.3-1.8 2.3h-.1c-1.2 1.1-2.3 1.8-2.5 1.6Zm-4.9-5.2c0-.2.2-.3.3-.2l.6.6c.2.2.5.3.9.3l5.5-1.1s.1 0 0 .1c-1.5 2.7-5.2 1.5-6.5 2.4-.2.1-.4 0-.5-.2l-.4-1.9Zm-1.4-3.4v-.1c1.2.2 2.4.6 3.7 1.2.5.3 1.6.4 3.4.4 0 0 .1 0 .1.1 0 0 0 .2-.1.2-1.5.3-3 .4-4.5.1h-.5l-.6.3h-.3l-1.2-2.3Zm-.8-6.4c1.6.7 2.9 1 4.1 1 .6 0 2.3 0 5.2.2.1 0 .2.2 0 .2-2.5 1-4.9 1.1-7.3.4-1-.3-1.7-.8-2.2-1.5 0-.2 0-.3.2-.3Zm-3.1-4.2s0-.2.1-.2c.9-.3 1.7-.2 2.5.4.3.2.7.4 1.1.4l9.6.8s.1 0 .1.1c0 0 0 .1-.1.1-3.8.8-7.2 0-10.8-.7-.2 0-.3 0-.4-.2-.4-.5-1-.7-1.9-.7 0 0-.2 0-.2-.2Zm-3.8-2.9c3.4.3 7.4.7 12 1.1 2.7.2 5.2.6 7.3 1.3 2.8.8 5.6 1.3 7.9 1.5.2 0 .3.3.1.5-.5.3-1.1.5-2 .6-.2 0-.4.2-.5.4-.2.6-.6 1-1.2 1.1l-6 1.5h-.7c-.5-.3-1.1-.5-1.6-.6-2.5-.2-5.2-.6-8.1-1.4-.1 0-.2-.2-.2-.3 0-.2.2-.3.3-.2 1.4.2 3.7.4 7.1.7 1.7.2 3.3.2 4.6 0 2.1-.2 3.6-.4 4.7-.4.3 0 .5-.2.8-.4.2-.2 0-.6-.3-.6-1.8 0-3.3-.3-4.5-1-.4-.2-.8-.4-1.2-.5-4.9-.8-9.8-1.4-14.7-1.8-1.5-.1-2.7-.5-3.7-1.1v-.2ZM83.5 76c-2.8.2-7.2 1-13.2 2.1-.8 1-1.2 1.7-1.1 2.2.6.9 1.3 1.2 2.1 1 2.5-.6 5-1.2 7.4-1.5.5 0 1 0 1.3.5 1.6 2 2.1 4.4 1.3 7.2 0 .3-.3.4-.6.4-1.1-.1-2.7-.2-4.9-.1-1.5 0-3.3 0-5.3-.2-8.8-.8-18.5-2.7-26.2-7.2-6.4-3.8-9.7-10-4.8-16.8C43.6 58 49 54 55.8 50.9c8.5-3.8 17.4-5.9 26.8-6.3 8.1-.4 14.8-.1 20.1.7 15 2.4 30.6 9 43.6 17.2 5 3.1 10.2 6.2 15.3 9.6 15.3 10.3 23.5 15.9 32.5 21.3 2.3 1.4 4.4 2.1 7 3.2 0 0 .1.1 0 .2 0 0-.1.1-.2.1-8.2-1.4-16.7-4.6-24.2-7.6-2.7-1.1-5.4-1.9-8.1-2.6-.7-.2-3.4-1-8.2-2.4-8.7-2.6-18.6-4.6-29.5-6-11.7-1.5-21-2.4-27.9-2.6-8.4-.3-15-.2-19.7.2Zm2.2 19c-.5 0-.8-.5-.7-1.1 0-.5.5-.9.9-.9.5 0 .8.5.7 1.1 0 .5-.5 1-.9.9Zm1 2.3h.4c.1 0 .2 0 .2.2v9.9h-.5s-.2 0-.2-.2v-9.9Zm2.4 16.6c.5-1.3 1.1-2.9 1.8-4.7 0-.2.3-.2.4 0 .6 1 .8 1.9.6 2.8-.5 2-1.4 4.5-2.9 7.5-.5.9-.8 1.9-.9 2.8 0 0 0 .2-.2.2 0 0-.2 0-.2-.2-.2-2.8.3-5.6 1.3-8.4Zm-4.4 4.4c.5-4.4 2-8.5 4.3-12.5 0 0 .2-.1.3 0v.2c-2 4.3-3.3 8.8-3.8 13.6 0 .2-.2.3-.4.1-.4-.4-.5-.8-.5-1.4Zm62 84.1c1.6 1.6 3.8 4.3 6.6 8.1 1.5 2 3.6 4.7 6.4 8.3 1.5 1.8 2.3 3.7 2.7 5.6.9.9 1.7 2.5 2.4 4.6 4.7 13.8 8.2 24.5 10.3 32 .4 1.4.7 2.8 1 4.1 1 2.7 1.5 5.1 1.3 7.3 2 6.9 3.7 14 5 21.2 0 .5-.2 1-.7 1.2l-11.2 3.8c-.2 0-.4 0-.4-.3l-3.3-21.2v-.3c-7.1-19.1-10.8-29-11-29.7-2.9-8.3-6.6-15.4-10.9-23.5-2.9-5.4-6.1-9.8-9.8-13.3-5.1-4.6-10.3-9-15.5-13.3-.9-.7-2.7-1.6-3.5-.4v.8c0 .2.2.4.3.6 7.8 6.4 17.7 14.1 23.3 23.1 3.4 5.4 6 10.5 7.9 15.2 0 .2 0 .4-.3.4-5.5-.2-10.6 1-15.4 3.6-3 1.7-5 2.7-6 3.2-.4.2-.8.2-1.2 0-2.7-1.1-5.8-3.1-9-4.3-6.4-2.5-13.1-4.7-20.1-6.6-.4-.1-.7-.4-.8-.8-.9-3.9-1.9-7.5-2.8-10.8-.5-1.9-1.2-3.7-2-5.4-.6-1.3-1.5-1.6-2.8-1.1-.3.2-.5.4-.5.7 0 .3.1.5.4.8 1.9 4.9 3.4 10.1 4.6 15.3 0 .2 0 .3-.3.3l-1.7-.2H87c-.5.4-.7.9-.8 1.4 0 .2-.3.3-.4 0-1.7-3.1-3.1-5.8-4.2-8.1-3.6-7.3-9-13.4-14.9-18.5-5.5-4.7-11.7-8.1-18.7-10-.2 0-.2-.2 0-.3 3.4-3.3 5.5-5.4 6.3-6.1 4.4-4.2 11-9.4 14.9-13.3.3-.3.9-.8 2-1.5.3-.2.6 0 .8.2l12.1 22.4c.6.7 1.3 1.5 2.1 2.6 1.5 2 6.2 1.2 7.7.3 4.3-2.9 10.4-6.2 18.4-10.1 4.7-2.3 10.6 1.6 14.7 4.3 2.1 1.4 4.2 2.9 6.2 4.3 6 4.3 11.6 9.1 16.9 14.5.8.8 2 1.4 3.7 1.8.2 0 .4-.2.2-.4l-7.1-9c-2.9-2.7-5.4-4.9-7.5-6.4-4.7-3.4-10.6-7.1-17.6-11.2-2.5-1.5-5.6-3.4-8.7-2.2-6.2 2.5-12.3 5.7-18.5 9.7-1.7 1.1-3.3 1.9-4.9 2.4-.5.2-.9 0-1.2-.4-6.3-11-11.8-21.2-16.7-30.5-3.4-6.5-5.3-10.1-5.9-10.7-.7-.7-1-2.6-.6-3.4 1.8-3.4 3.3-6.5 4.7-9.3 3.1-6.4 5.2-10.9 12.7-9.6 1.1.2 1.9.5 2.3.8.2.2.3.4.2.7-.4 2-1.1 3.5-2 4.7-.3.4-.9.4-1.2 0l-3-4.4c-.4-.6-1.1-.7-1.7-.4h-.2c-.7.4-1 1.3-.7 2 .7 1.3 1.3 2.4 1.9 3.2 4.5 5.8 9.5 11.2 15 16.1 6.4 5.8 13 12.8 18.6 18 3.8 3.6 6.6 5.9 8.4 7.1 5.8 3.7 10.3 6.7 13.6 8.8 4.2 2.7 8.6 6.4 13.2 11.1Zm-22.2 86.1-.5-.9c0-.2-.2-.3-.4-.4-2.3-1.1-4.4-2.5-6.1-4.1-3.5-3.4-6.5-4-11.4-4.4-1.3-.1-5.1-.4-11.5-.9-3.3-.2-6.5-.3-9.6 0-2 .1-4-1-4.8-2.8l-.3-.7c-.7-1.5.4-3.2 2.1-3.2h14.3c3.2 0 5.5.3 7.2.8 7.1 2.5 10.7 6.6 17.2 13 .7.7 2 1.6 3.6 2.6.5.3.9.6 1.2 1l13.2 14.4c.2.2 0 .5-.2.5-7.8.8-15.2.8-21.6 2.1-3.9.7-8.2 1.6-13.1 2.6-3.1.6-5.7 0-7.6-1.6-1.5-1.3-.9-3.7.1-5 .2-.2.4-.4.7-.4 8.2-.7 13.5-.9 16-.7 3.4.3 6.7 1.2 10 2.7.9.4 1.8.5 2.6.2.2 0 .2-.3.1-.4-2.4-2.9-6.3-4.3-10-5.2-1.6-.4-3.9-.5-7-.3-3.6.2-6.9.3-9.8.4-2.7 0-6.1 2.2-9.1 1.6-2.3-.4-4-1.4-5.2-2.8-1.7-2-.1-4.2 2.1-4.3 3.5-.2 7-.4 10.6-.9 1.5-.2 4.8-.3 9.7-.5 1.7 0 3.6.3 5.7 1.1 6.8 2.5 9.6 3.3 14.4 6.4 2.6 1.7 4.6 2.9 6 3.6.5.2 1.3.3 2.4.1.2 0 .3-.3.2-.4-3.1-3.7-7.6-6.4-12-8.7-2.8-1.4-6.5-3.1-11.2-4.9-.7-.3-1.8-.5-3.2-.8-1.7.1-3.4.5-5.1.6-6.1.2-11.9.7-17.4 1.3-2.4.3-4 .3-4.6 0-1.9-.7-6.4-3.5-3-5.8 1.2-.8 2.5-1.4 3.9-2 .6-.2 1.2-.3 1.8-.3 7.4 0 14.9.3 22.4 1.3 1.4-.2 2.8 0 4.1.6 1.1.5 3.4 1.9 6.9 4.3 1.4 1 3.4 1.5 6.1 1.8.3 0 .4-.2.3-.5Zm-25-27.9c-.9-8.5-2.2-16.4-3.8-23.9 0-.2.1-.4.3-.3 5.8 1.7 12.2 3.8 19.3 6.5 1.6.6 4.4 2 8.6 4.3.8.5 1.7.5 2.5 0 4.8-2.5 8-4.2 9.5-4.8 4.3-2 8-2.2 12.7-2.1.5 0 .9.3 1.1.7 2.1 4.9 3.5 7.8 5 12.3 2.9 8.5 5.5 15.6 7.7 21.4 1.1 2.8 1.7 6.1 2.1 9.3.7 5.5 1.6 10.4 2.5 14.6 0 .4-.2.9-.6.9-7.3 1.6-14.5 2.5-21.5 2.8-.9 0-1.7-.2-2.4-.8-2.1-1.6-3.9-3.5-5.5-5.8-4.6-5.9-9.9-11.1-16-15.5-.3-.2-1.5-1.5-3.6-3.8-.2-.2-.3-.4-.2-.7v-2.9c-.6-5.3-1.4-10.7-2.4-16.1-.6-3.7-1.4-6.8-2.4-9.2-.4-1-1-1.7-1.9-2.1-.2 0-.5 0-.5.3 0 .7.1 1.4.4 2 2.3 8.7 3.6 17.5 5 26.4 0 .3-.3.5-.5.3-3.5-3.1-7.3-5.3-11.3-6.7-.2 0-.4-.2-.5-.4l-2.9-3.8c-.1-.1-.2-.3-.2-.4-.4-1.7-.6-2.6-.6-2.7Zm-2.8-1.8v.1h-.1l-5.4-7.7c-.3-.4-.4-.8-.4-1.3-.2-4.6-1-9.2-2.5-13.8-.1-.4.2-.7.6-.7l2.9.2c.6 0 1.1.5 1.1 1 1.3 7.3 2.3 13.5 2.9 18.6 0 .7.4 1.9.9 3.6Zm102.2 97.9c.6 4.1 1 7.3 1.3 9.6 0 .2-.1.4-.4.4-5.7.2-10.9 0-15.8-.7-.7 0-1.2-.6-1.3-1.3l-.4-4c0-.4.2-.9.6-1.1l3-1.6c.3-.1.6 0 .6.3.3 1.5 1 2.4 2.2 2.5 4.3.6 6.8-1 4.6-5.5-.2-.4 0-.8.3-1l4.4-2.3c.3-.1.6 0 .6.4-.1 1.6 0 3.1.2 4.5Zm-7 1.7c0 .1 0 .2-.2.2h-.2c-1.6 0-2.9-.8-2.9-1.6s1.3-1.5 3-1.4h.2c.1 0 .2.1.2.2v2.6Zm-13 74.1c0 .1 0 .3-.2.3l-14.7.6c-.2 0-.4-.2-.5-.4l-.6-15.3c0-.3.2-.5.5-.6l14.3-1c.2 0 .3.1.3.3-.4 5 .2 10.8.8 16ZM163.5 410c0-.2.1-.4.3-.4l19.1-1.7c.2 0 .4.2.2.4l-3.1 4.6c-.2.2-.4.3-.7.3-1-.2-1.6-.3-2-.3-6.3.3-10.7.6-13.2 1-.1 0-.2 0-.2-.2l-.3-3.7Zm26.5-2.7c5.3-.5 10.6-1 15.9-1.6 3.6-.4 7.7 2.8 8.3 6.2.8 4.3 1.3 8.6 1.7 12.8.3 4.4-1.5 7.7-5.4 10-5.9 2.2-12 3.2-18.5 3-4.2 0-7.3-1.7-9.2-5.2-.1-.2-.2-.5-.3-.8-1.2-5.1-1.6-9.7-1.3-13.8.3-3.4 5.4-10.2 8.8-10.6Zm11.9 61.9c-.6.1-1.2-.2-1.5-.7-.9-1.5-1.5-3.4-2-5.5-1.5-6.9-2.7-13.7-3.6-20.5 0-.7.4-1.3 1.1-1.4 4-.3 7.6-1 10.9-1.9.2 0 .4 0 .5.2 2 5.1 3.4 10.8 4.3 17 .5 3.9 1.3 7.2 2.2 9.9.1.3 0 .7-.4.7l-11.4 2.2Zm2.1 3.2 12.1-2.4c.3 0 .6.1.7.4 2.6 5.7 4 11.5 4.4 17.5v.8c-.7 3.5-1 6.9-1 10.4 0 2.3-.6 5.1-1.2 7 0 .2-.3.4-.6.3-5-1.7-8-5.3-8.7-10.7-1.2-8.3-3.2-15.9-6-22.8-.1-.2 0-.5.3-.6Zm25.7-47.5c0 .1 0 .2-.2.2l-9.9 1.5c-.1 0-.2 0-.2-.2l-2.2-14.6c0-.1 0-.2.2-.2l9.9-1.5s.2 0 .2.2l2.2 14.6Zm-1.1-22.5c0-.3.1-.6.4-.6l3.1-.5h.7c2.7 1.3 2.9 5 3.3 8.1.4 3 .5 7.5.5 13.4 0 2.4-.4 4.6-1.2 6.4-.3.6-1.1.7-1.5.2-.3-.4-.5-.9-.5-1.6-.4-6.1-1.2-12.1-2.3-18-.5-2.7-1.6-4.9-2.4-7.5Zm-11.8 6h-.2l-2.9-3.1v-.2l12-2.3c.1 0 .2 0 .2.2-.2 1.1-.2 2.1 0 3.2 0 .2 0 .5-.3.5l-9 1.8Zm-23.6-18.8c0-1.1-.3-4.3-.7-9.5-.2-2.9-.6-6-1.3-9.4 0-.2.1-.4.3-.4l15.9.3c.3 0 .5.2.5.5.6 9.1 1.2 18 3.8 26.4.1.4 0 .8 0 1.2-.6 1.3-1.5 3.2-3.1 3.4-5.5.6-10.8 1.2-16.1 1.6-.1 0-.2 0-.2-.2 1-4.8 1.3-9.4 1-13.9Zm1.3-81c-3.6-3.8-7.3-7.1-11.1-9.8-.2-.2-.2-.6 0-.7l16.8-5.7c.7-.2 1.4-.2 2.1 0 2.5 1.1 5 2.6 7.5 4.6.7.3 1.4.9 2.3 1.9 7.2 8.2 10.2 17.8 9 28.8 0 .7-.3 2.6-.8 5.5 0 .2-.1.4-.2.6-.5 1.1-1.2 1.9-2.1 2.5-4.8 3.4-10.1 6.4-15.9 9.1-.2 0-.3 0-.3-.2 1.5-8.5.6-16.7-1.4-25.4-.9-4.2-2.9-7.9-5.9-11.2Zm12.5-17.2c-.1 0-.2-.3 0-.3 3.6-2.2 7.5-2.9 11.5-2.1 3.5.7 6 1.3 7.4 2 2.8 1.3 5.7 3 8.9 5.2 4.5 3.1 8 5.7 10.5 7.8.2.1.2.4 0 .6-3.4 3-7.2 5.6-11.4 7.8-2.1 1.1-5.5 3.5-8.7 4.4-.4.1-.8-.1-1-.6-.8-3.5-1.3-6.5-2.7-9.5-3.1-6.5-7.7-12.6-14.4-15.2Zm-28-30c-1.8-6.5-3.8-13-5.9-19.6 0-.3 0-.6.3-.7 9-3.8 18-4.2 28.8-4.9 2.6-.2 5-1.2 7-3.2 2.5-2.4 4.5-4.6 6.3-5.3.1 0 .3 0 .3.2 3 10.3 5 20.6 6 31 .6 6.2.8 12.2.5 17.9-.1 2.5-.8 5.1-2.1 7.7-.5 1.1-1.3 1.5-2.4 1.3-2.2-.4-3.8-.6-4.7-.5-.3 0-.6 0-.8.1-.4 0-2.6.8-6.8 2-2 .6-4.2 1.3-6.6 1.9-4 1.1-8.1 2.5-12.3 4.3-.2 0-.4 0-.5-.2-2.3-10.4-4.5-22.7-7.1-32Zm42.7-24.9c0 .1-.2.1-.2 0l-3.1-11.2c0-.2 0-.4.2-.4l3.5-1.9h.1c.2 4.2 0 8.7-.5 13.4ZM153.6 184c-.2 1.6-.4 4.6-.8 8.8-.2 2.5-.9 5.3-2 8.3-.1.3-.5.4-.7.1l-1.5-2c-.3-.4-.3-.8-.1-1.2 2-4.7 3.5-9.2 4.3-13.5 0-.3.2-.5.4-.7.2-.1.4 0 .4.2Zm7.1-18.4-.2 1.9c0 .3-.2.5-.5.5-1.4.3-2.3.4-2.6.3-.1 0-.1-.3 0-.3 1.3-.4 2.3-1.2 3-2.5.1-.2.4-.1.4.1Zm16.2 13.3v.2c1.2 4.1 2.2 7.9 5 9.4 1.5.8 2.3 1.2 2.3 1.3.1.1 0 .3-.2.3-3-.6-6.2-2.5-10-4.3-.6-.3-1.3-1.1-2.1-2.3-.4-.3-.7-.4-1-.4-.3 0-.6.1-.8.5-.2.3-.3.6-.5.9-.9 2.9-2.3 5.5-4 8-5.3 7.8-8.7 12.8-10.1 14.9 0 .1-.3.1-.4 0-.7-.7-1.3-1.5-1.6-2.2-.1-.2-.1-.5 0-.7 1.5-5.2 2.6-10.5 3.1-16 .3-2.7.2-4.7-.1-5.9-.6-1.9-1-3.3-1.2-4.3v-.2l.2-4.9c0-.4.3-.7.7-.7l13.8-2.3c.5 0 1 .1 1.3.5l5.5 8Zm36.1 2.4c2.7 5.7 5.4 11.1 7 16.9 1.8 6.7 2.5 13.8 2.2 21.5 0 .3-.2.6-.5.6-1.9.3-3.2.8-4 1.5-.2.2-.5 0-.6-.2-1.5-3.6-2-5.5-4.2-7.8-.1-.2-.2-.3-.3-.3-.2 0-.4 0-.4.2l-.2 2.9 2.5 6.4c0 .2 0 .4-.1.5l-9 8.3c-.3.3-.6.5-1 .5-3.1.7-6.6 1-10.7 1.1-1.2 0-4 .3-8.5 1-4.9.7-8.6 2.1-12.6 4.1-.3.2-.7 0-.8-.4-1.4-4.8-3.2-10-5.6-15.4-1.8-4.2-4.8-7.3-8.2-11.8-.2-.3-.2-.6 0-.8l14.1-20.6c.1-.2.4-.3.6-.2 3.5 1.7 6 3 7.8 3.8 3.3 1.5 8.5 2.1 11.7-.2 1.4-1 .8-2.4-.4-3-3.2-1.6-8.6-3.5-9.7-7.1-.5-1.6-1.1-3.5-2-5.4l-2-3.2-2.1-2.6c-.2-.2 0-.5.3-.4 5.6 2.2 11.4 4.1 17.4 5.7 5.8 1.5 11.4 2.1 17.5 3.1.8.1 1.6.7 1.9 1.4Zm26.4 183.3c-10 1.6-20.1 2.4-30.3 2.6-.9 0-2.7-.1-5.4-.4-.2 0-.4-.2-.4-.4l-1.8-15.7c0-.6.3-1.1.8-1.4l4.7-2.2c.7-.3 1.5-.4 2.2 0 9.7 3.5 18.4 6.5 28.2 8.3 2.4.5 4.8.7 7 .8.9 0 1.6-.9 1.1-1.7-.3-.5-.8-.8-1.5-.9-7.1-1.3-13.7-2.7-21-5.1-5.3-1.7-9-2.9-11.1-3.5-.2 0-.2-.3 0-.4 3-1.6 5.8-3.4 8.4-5.3 2-1.4 3.1-3.4 3.5-6 .5-3.8.8-7.4 1-10.6 0-.2.2-.3.4-.2.4.2.8.5 1.1 1 1.3.7 2 1.2 1.9 1.7 3.2 2.3 6.3 4.5 9.3 6.5 1.7 1.1 7.5 4.4 17.6 9.6 2.2 1.2 4.7 2.2 7.4 3.1.6.2 1.3-.2 1.3-.9 0-.9-.4-1.6-1.1-2-6.5-3.2-12.9-6.6-19.3-10.2-5.3-2.9-10.4-6.6-15.5-10.9-.2-.2-.2-.5 0-.7l7.5-3.8s.1 0 .2-.1c2.5-1.9 6.4-4.5 11.7-7.8 5.4-3.4 11.3-5.2 17.7-5.2 6.3 0 12 2.3 17.1 6.9 1.2.6 2.4 1.4 3.5 2.6.6.6 1.6.4 2-.4.4-.8 0-1.7-1-2.6-2.5-2.1-5.3-4.8-7.9-6.3-8-4.4-16.4-4.9-25.2-1.4-.2 0-1.3.6-3.3 1.5 0 0-.2 0-.2-.1v-.3c2.9-1.4 5.2-2.7 7.1-3.7 2.7-1.5 5-2.5 6.9-2.9 6.9-1.5 13.6-.8 20.2.6.8.2 1.5-.5 1.4-1.2v-.2c-.1-1-.8-1.8-1.8-2-13.8-3.6-25.9-.8-36.3 8.3-.2.2-.6 0-.5-.3 0-.1 0-.2.2-.3 3-2.6 4.9-5.2 7.6-8.3 3-3.3 5.7-6.5 9.1-7.8.9-.3 2.6-.8 5-1.2.6-.1 1.2-.5 1.7-1.2 0-.4 0-.8-.3-1.1-6.9-.6-11.7 2-16.5 7.2-3.2 3.4-6.5 6.7-9.8 10-.1.1-.3.1-.4 0-5.5-4.7-11.3-8.5-17.3-11.3-.5-.3-.9-.9-.8-1.5.5-3 .8-5.3.9-6.8.6-6.3 3.8-13.1 7.4-17.8 4.2-5.5 9.3-10.3 15.3-14.7.6-.5.7-1.4 0-1.9-.7-.7-1.8-.7-2.6-.2-9 6.1-16 13.4-20.2 23.4 0 .1-.2.2-.3.2-.1 0-.2-.2-.2-.3l.2-1.4v-.8c-.6-4.7-1.1-9.6 1.1-13.6 1.7-3.1 3.3-5.8 4.9-8.2 3-4.5 5.5-9.6 7.4-15.2.3-.8 0-1.7-.8-2.1-.7-.4-1.5-.1-1.8.6-2.3 5.5-4.5 10.1-6.9 13.8-3.3 5.2-5.2 8.3-5.7 9.3 0 .2-.3.1-.4 0l-.3-3.1c-.1-1 0-1.9.1-2.9.4-2.3 1.1-5.3 1.4-8.5.4-4 .6-10.3.6-18.8 0-7.8-1-14.9-3.1-21.2-.9-2.7-2.7-7-5.5-13 0-.2 0-.3.3-.3 7.9 3.7 15 10.9 19.9 18.1 2.3 3.4 4.4 6.8 6.1 10.3 2.9 5.8 5.3 9.6 7.4 14.3 1.4 3.3 2.6 7.4 3.5 12.4 0 .5.3.9.6 1.3l5.1 6.7c.5.6.8 1.3 1 2.1l1.2 4.7c.4.8.9 1.6 1.5 2.2 5.6 6.2 11 12.6 16.3 19.1 3.4 4.6 6.6 9.3 9.7 14.1 2.2 3.3 4 6.7 5.4 10 4 9.3 6.7 18.8 8.2 28.5 1.3 8.4 1.1 17.6-3.7 25.1-1.6 2.4-3.8 4.1-6.8 5.1-4.5 1.4-6.9 2.1-7 2.2-13 2.7-21.7 4.3-26.2 4.7-5.3.5-10.5 1-15.7 1.6-1.4.1-3.2 0-4.3.2Zm-.3 28.3c-5.9 3.3-11.9 5.8-18 7.6-.1 0-.2 0-.3-.1v-.3c3.1-2.2 7.4-5.2 12.9-9.3 1.3-1 .4-3.9-1.8-2.4-1.5 1.1-3 2.4-4.4 3.3-9.1 5.9-13.9 9.2-14.4 9.7l-.3-.3v-.4l2.6-2.6c.2-.2.2-.5.1-.7-.5-1.1-1-2.6-1.4-4.6-1.3-6.1-2-9.9-2.1-11.4-.6-6.3-1-9.9-1.1-10.7 0-.2.1-.4.3-.4 7 .3 14.2-.1 21.4-1.2 2.9-.4 4.8-1 6.4 1.7 1.9 3.3 3.3 6 4.1 7.9 1.9 4.7 1.3 8.7-1.9 11.9-.1.7-.9 1.5-2.2 2.2Zm1.4 8.8-1.8 1c-.4.2-.9 0-1-.3-.5-1.1-1.2-1.9-2-2.6-.2-.2-.2-.5 0-.6l1.8-.9c.3-.2.7-.1 1 .2l2.2 2.4c.3.3.2.7-.2.9Zm-.3 19.9c-.2.2-.5 0-.5-.3.2-5.5 0-10.2-.9-14.2 0-.3 0-.6.2-.8.5-.6 1.3-1.1 2.2-1.4.2 0 .4 0 .4.2 1.6 4.5 3.1 13.1-1.5 16.5Zm8.3 16.8c0 .2-.2.4-.3.2-3.3-2.6-5.2-4.7-8.6-8.8-.2-.2-.3-.4-.3-.7-.5-2.4.5-4.1 2.9-5 .2 0 .5 0 .6.2 1.7 2.5 2.8 4.3 3.1 5.3.8 2.7 1.7 5.6 2.6 8.8Zm-20.8 215.8c0-.3.2-.5.5-.5l25.5 1.6c.3 0 .5.2.6.4 2 3.7 4.5 7 7.5 10 4.8 5.1 10.5 9.3 17 12.7.5.3 1.1.2 1.5-.2l.3-.3c.5-.5.4-1.4-.3-1.8-9-4.6-16.6-12-22.4-20.1 0-.1 0-.3.2-.3 3.4 0 6.3 1.1 9.9 1.4 2 .2 3.7.3 5.1.3 3.1.1 5.7 3 7.5 4.8 5.7 4.8 12.2 8.3 19.3 10.5 2.8.9 6.9 1.3 12.1 1.3.4 0 .9-.2 1.2-.5l.8-.8c.5-.5.2-1.5-.6-1.5-11.6 0-22.4-4.2-31.3-11.6-.3-.2-.3-.6-.2-.9.9-1.4 1.3-3.3 1.4-5.6 0-.2.3-.4.4-.2 6.1 3.9 13.3 5.3 20.6 5.7.8 0 1.6-.6 1.7-1.4 0-.9-.6-1.6-1.4-1.7-7.5-.8-12.8-1.8-19.1-4.4-.4-.2-.6-.6-.5-1 .6-2.9.9-6.1.9-9.7 0-2.8-.6-4.9-1.6-7.3-3-6.8-6.8-11.7-12.2-19.2-2.9-4.1-5.3-7.6-7.3-10.6-7.7-11.9-17.1-25.4-27.9-40.6-5.7-7.9-12.7-19.2-16.9-25.2-.6-.8-1.4-1.7-2.3-2.6-.2-.2 0-.5.2-.5 10.6-1.3 20.9-2.9 30.9-4.8 1.5-.3 3-.4 4.5-.1 1.3-1.3 1.3-2.3-.2-3-1.2 0-2.4.1-3.4.2-1.3 0-2.4.2-3.4.4-6.5 1.3-12.6 2.3-18.4 2.9-3.6.4-7.4 1.2-10.8 1.8-1.2.2-2.1-.3-2.7-1.5-.9-1.7-1.3-2.8-1.3-3.2 0-.3.1-.5.4-.7 1.2-.8 2.1-1.8 2.8-3.1.2-.3.4-.6.7-.8 12.6-8.1 24.2-14.7 34.9-19.8 4.3-2.1 9.5-4.2 15.8-6.3.3-.2.6-.5.7-.8-.2-1.9-2.1-1.5-3.5-1-4.4 1.5-9.6 3.2-14.5 5.6-11.4 5.5-22.2 11.8-32.5 18.8-.1 0-.3 0-.2-.2.5-1.3 1.3-2.4 2.3-3.4 6.6-6.4 13.7-12.6 21.4-18.7 8.6-6.9 15.3-11.4 19.9-13.7.8-.4 1-1.3.6-2s-1.2-.9-1.8-.6c-5.4 2.9-10 5.7-13.9 8.6-8 6-16 12.7-24 20-.1.1-.3 0-.3-.2 1.8-4.7 1.9-9.3 1.5-14.1 0-.7.2-1.4.8-1.8 6-5.2 12.3-9.6 19.2-13.2 1.5-.8 4.6-2.3 9.2-4.6.5-.7.4-1.3-.2-1.6-1.4 0-3.2.3-5.1 1.1-8.2 3.4-15.8 8.1-22.6 14-.2.1-.4 0-.4-.2-.2-6.4-1.8-12.6-4.6-18.4-.1-.2 0-.5.3-.5 9.8-1.2 19.4-3.1 28.8-6.4.8-.3 1.3-1.1 1.2-2-.1-.8-.9-1.3-1.7-1.1-7.9 2.4-15.1 4-21.5 5-4 .6-7.1 1.1-9.1 1.4-.4 0-.7-.1-.8-.5-.9-2.4-1.7-5.7-1.9-7.6-.9-7-2.5-13.4-4.8-19.3 0-.2 0-.5.3-.6 3.9-1.2 6.3-4 8.2-7.4.2-.3.5-.5.8-.5l10.3-1.7c.3 0 .6.2.6.5.5 3.3 2.5 5.6 6.1 4 .9-.4 1.2-.9 1.8-1.6.1-.2.3-.2.5 0l3.5 5.2c3.6 4 7.4 7.8 11.5 11.2.3.2.4.6.4 1v1.7c-.1.2-.4.4-.6.2-5.2-3.2-8.3-5.6-9.5-7.2-1.2-1.6-2.2-2.7-2.9-3.2-.5-.4-1.2.2-1 .8.8 2.2 2.1 3.8 3.7 5.5 2.3 2.1 4.7 3.7 7.2 4.9.5.2.8.7.9 1.3.2 1.7.6 2.8 1 3.2 2.6 3.1 8 6.1 7.1 12.3 0 .3 0 .5.2.8.6.9 1.1 1.4 1.6 1.7 4.5 2.8 6.8 6.5 6.8 11.1s.3 1.7.9 2.2l5 5s.1.2.2.3c1.3 2.6 2.6 4.7 3.8 6.4 4.2 5.7 7.9 11.1 11.2 16.2 11.8 18.1 22.9 37.8 32 58.2 2.4 5.4 4.7 10.7 7.1 16 6.1 13.9 11.5 28.2 16.2 42.8 2.3 7.1 3.6 14.9 4 23.4.3 7-.5 12.8-2.5 17.3-2.5 5.7-6.7 10.2-12.4 13.5-6.6 3.8-13.3 6-20 6.7-6.2.6-13.6.9-22.1.7l-25.1.2c-4.4.3-8.8.5-13.1.6-11 .2-17.6.3-19.7.4-1.9 0-3.4.3-5.1.5-.2 0-.3-.1-.3-.3.2-6.3.1-10.2.6-17 .5-7-.2-13.7-1.2-20.8Zm-9.1-76.4c-1.6-12.4-3.1-24.7-4.6-36.9-.3-2.5-.7-5-1.3-7.6 0-.2.2-.3.3-.2 1.9 1.6 3.6 3.5 5 5.7 7 10.3 12.4 18.9 19.3 28.6 9.5 13.4 17.8 25.4 24.8 36.2 4.8 7.4 11.6 16.5 14.9 21.6 4.7 7.3 8.1 13 5.9 21.5 0 .1-.2.2-.3 0-1.2-1.4-2.7-2.2-4.8-2.4-.5 0-.9-.3-1.2-.7-2-3.3-6-3.9-9.5-3.3-.3 0-.7 0-.9-.3-10.9-11.9-21.5-24.5-31.6-37.8-7.2-9.4-11.9-16-14.2-19.7-1-1.7-1.4-3-1.7-4.8Zm1.4 10.5 2.7 3.5c5.1 7.2 9.2 12.6 12 16.1 3 3.7 5 6.2 5.9 7.4l2.3 2.7s0 .2-.1.2h-19.1c-.3 0-.6-.3-.7-.6l-3.4-29.3c0-.1.1-.2.2 0Zm51.8 66.4c-5.3-.3-9.5-.5-12.6-.8-1.1 0-1.9-.3-2.4-.8-.2-.1-.4-.3-.4-.6-3-7.6-5.2-15.3-4.1-23.3 0-.2.3-.3.4-.1l1.1 1.6c3.3 4 5.4 6.5 6.3 7.4 5.1 5.5 9 10.2 11.7 14.2l.7 1.5c.2.4-.1.8-.5.8Zm-.2-7.1c-.2-.3-.2-.8.1-1 2.2-1.8 4.5.2 6.7 1.8.8.5 1.2 1.4 1.3 2.3l.6 5.5c0 .3-.3.5-.6.4-3.7-2.2-6.3-6.2-8.2-8.9Zm-47.7-25c0-.2.1-.5.4-.5h20.8c.5 0 .9.2 1.2.5l2.3 2.6c.4.5.6 1.1.6 1.7-.4 4-.7 6.7-.3 10.3.6 5.6 2 10.8 4.2 15.7 0 .2 0 .4-.3.4-8.4-1.4-16.7-2-25-1.8-.3 0-.5-.2-.5-.5l-3.3-28.3Zm20.2 196c0 .2-.2.3-.4.2-.5-.4-.9-.7-1.2-1-7.6-8-14-13.9-19.2-17.8-5.9-4.4-12.5-8.3-19.7-11.7-6-2.8-11.8-3.7-18.5-4.5-.3 0-.5-.2-.7-.4-1.5-1.9-3.9-1-5.9-.6-.2 0-.5 0-.6-.3-.4-.5-.7-1.2-.9-2-.7-2.3-1.2-4.5-1.7-6.9-3.4-15.4-7.3-31.8-10.7-48.4-.4-2.2-.3-3.9.5-5.3 2.8-4.7 3.8-9.5 3-14.3-.4-2.5-1.3-3.8-2.7-6-.4-.7-.7-1.4-.7-2.2l-.6-8.8c0-.1.1-.2.2-.2.5.2.9.4 1.1.6 2.7 1.2 4.5 2.3 5.4 3.2l1.8 1.8c.3.3.6.4.9.2.3-.1.4-.4.5-.8.7-2.2-2.5-3.8-4.3-4.8-1.5-.8-3.4-1.8-5.8-2.9-.6-.3-.9-.8-.9-1.5 0-2.9.2-5.5.5-7.8 1-7.7-1.5-14.8-4.2-22.5-6.3-18.1-16.6-42.7-22.4-59.2-7.7-21.9-14.5-44.2-20.3-67-.3-1.3-.8-2.5-1.4-3.6-4.4-8.2-8.1-17.1-11-26.8-1.8-5.9-3.2-11.9-2.6-17.9.1-1 0-2.8-.6-5.3-.5-2.5-.9-4.5-1.4-6.1 0-.2 0-.4.3-.4 11.7-.4 22.4-2.5 32.1-6.3 9.1-3.6 15-9.8 17.8-18.8-.5-2.2-.6-3.8-.3-4.6.2-.6.7-.9 1.4-1 .4 0 .8.3.9.7l.5 2.4c0 .1 0 .3.1.4 1 2.3 2.8 3.7 5.2 4.1l4-1.9c.7-.3 1.2-1 1.2-1.7l.2-3.4c0-.4.3-.7.7-.7 4.5-.4 9.1-.6 13.8-.7 1.4 0 2.8-.7 4.1.5 3 2.7 6.4 4.1 10.1 4.1.3 0 .5.2.5.5.7 6.5 1.8 13.7 3.4 21.6.4 2 1 3.9 1.9 5.8.1.3 0 .5-.3.6-2.7.1-8.3.4-16.7.7-4.4.2-9.8.1-16.1-.2-6.2-.3-11.5-.5-16.1-.7-.8 0-1.4.5-1.5 1.3 0 .8.4 1.4 1.1 1.5 13.4 1.3 26.5 1.8 39.2 1.4 1.3 0 5.8-.4 13.3-1 .3 0 .5.1.6.3.2.5.1 1.2.3 1.9 2 5.4 3.1 8.7 3.4 9.8.5 2.1 1.4 6.2 2.6 12.4.9 4.7 2.7 8.3 6.3 10.6 0 0 1 .6 2.7 1.6.3.2.5.6.3 1-1.4 3.8-3.1 7.4-5.3 10.6 0 .1-.3 0-.4 0-.2-1.8-.5-3.6-1-5.4 0-.4-.4-.7-.8-1-.8-.2-1.5.1-1.9 1 2.8 23 5.5 46 8.2 69 1.3 11 2.5 21.7 3.7 32.3 1.3 11.9 3 25.4 5.1 40.4.8 5.9 1.1 12.5 1 19.8-.2 8.6-.5 16.1-1.4 23.9-.3 3.1-.4 6.2-.3 9.4.2 4.5 1.8 9 3.1 13.4 1.6 5.7-.4 11.2 1.6 16.5 5.9 16 10.2 32.9 12.9 50.5 1 6.8 1.8 12.6 2.3 17.5.5 4.3.3 6.9.4 10.8Zm-85.8-377.5h-1.2c-1.2 0-2.4-4.1-2.5-9.3l-.6-20.9c0-.4.3-.7.7-.7h4.4c.4-.1.7.2.7.5l.6 20.9c.2 5.2-.7 9.4-2 9.5Zm-59.2-.9c0-.2.2-.4.4-.4l46.6-1.9c.2 0 .5.2.5.4.4 3.9-.7 7.5-3 10.6-3.4 4.5-7.8 7.7-13.2 9.8-7.1 2.7-16.8 4.7-28.9 5.9-.6 0-1.3.1-1.9.3-.2 0-.4-.1-.5-.3-.3-3.5-.5-8.1-.1-11.9.5-4.4.5-8.6.2-12.4Zm-4.1-3.9c-.4 0-.8 0-1.3-.3-1.2-1.2-1.9-2.6-2.1-4.2-.5-3.5-.8-6.8-.9-9.9 0-.1 0-.2.2-.2l39.7-2.7h.1l2-.7c.2 0 .4.2.2.3-3.3 4.7-3.3 12.9 2.8 15.7.1 0 0 .3 0 .3l-26.1 1.3c-4.8.3-9.7.5-14.5.4Zm-4.5-18.6.2-2.8c0-.2.2-.5.5-.5l59-4c.3 0 .6.2.5.5l-.2 2.8c0 .2-.2.5-.5.5l-59 4c-.3 0-.6-.2-.5-.5Zm61.1 15.5c0 .4-.3.7-.6.7-3.5 0-5.8.2-6.7.3-4.2.4-9.5-2-10.4-6.5-.7-3.6.2-7.6 3.7-9.1.3-.1 1.9-.3 4.9-.5 3.4-.2 6-.3 7.8-.2.2 0 .3.2.3.3l1 15.1Zm29.9 359.3c1 3.2 1.7 6.3 2.1 9.1.6 4.3 2.3 9.1 3.1 13.8v7.4c0 .2-.4.4-.5.2l-4.1-5.1c-3.3-3.5-5.4-7-6.3-10.6-1.6-6.7-3-12.8-4.1-18.5 0-.3.1-.6.4-.7l8.8-2.4c.5-.1.9.4.7.9-.8 1.7-.6 4 0 5.9Zm68.1 4.6-2.6 9.1c0 .2-.3.2-.3 0L245 791c0-.4.4-.6.7-.4 2 1.5 3.3 3.4 4 5.7v.8Zm29.8 126.4c0 .3-.2.5-.5.4-4-1.2-8-1.1-11.9.1-8.1 2.6-16.5 5.7-25.3 9.2-3.1 1.2-7.9 2.7-14.4 4.3-.2 0-.3-.1-.2-.3 0-.2.1-.3.1-.5.5-2.2.4-4.8-.3-7.9-.2-1.1-.9-2-1.8-2.7-.2-.1-.1-.4.1-.5 3.9-.5 8.1-1.2 12.7-2.3 4.8-1.1 9.5-3.1 14.1-5.9 2.6-1.6 4.3-3.1 5.1-4.4 2.9-4.8-.7-8.6-2.9-12.9 0-.2 0-.4.2-.5 2.1-.7 4.5-1.7 7.3-2.9 1.7-.7 3.2-.6 4.5.6 3 2.4 4.9 7.3 6.1 10.9.3 1 .8 1.9 1.5 2.6 3.2 3.4 5 7.5 5.6 12.5Zm60 62.7c-5 3.2-11.4 4.9-17.1 5.6-2.9.4-8.5.9-17 1.5-4.3.3-10.6.3-18.9-.2-7.2-.4-14.4-1.7-21.5-4-4.5-1.4-8-3.5-10.6-6.8-3.7-4.6-6.4-8-8.2-10.1-4.3-5.2-10.1-9.4-17.3-12.6-.6-.3-1.1-1-1.5-2.1-1.7-4.9-3.8-11-1.2-15.5.3-.5.8-.9 1.4-1.1 5.8-1.6 11.2-2.8 16.8-5.1 3.5-1.4 9.6-3.9 14.8-5.6 4.2-1.3 7.8-2.7 11.6-3.7 1-.3 2-.4 2.9-.4 3.7 0 6.2.8 7.4 2.6 3.7 5.7 7.2 10.5 10.5 14.4 4 4.9 8.6 9.7 13.8 14.6 7.5 6.2 15.4 11.4 23.7 15.7 5.3 2.7 9.6 4.6 11.1 10.9.2.7-.1 1.4-.7 1.7Zm-130.6-31.5c0-.2.1-.3.3-.2 4.1 2.3 8.8 4.5 14.2 6.5 5.3 2 9 3.7 11 4.9 6.5 4 11.8 11 16.5 17.1 6 7.8 14 10 24.1 11.8 8.5 1.5 16.7 2.2 24.5 2 .8 0 6.2-.5 16.5-1.3 6.2-.5 10.9-1.2 14-2.2 5.3-1.6 9.6-3.4 13.1-5.4.3-.2.8 0 .9.3.8 2.3-1.9 3.8-4 4.6-3.5 1.5-7.2 2.5-11.1 3.2-5.2.9-8.3 1.4-9.3 1.5-6.1.6-10.6 1-13.4 1.3-4.1.4-9.5.5-13.1.5-11.6.2-22.6-1.8-33.1-5.9-2.6-1-5-2.5-6.9-4.4-2.8-2.9-4.5-4.6-7.1-7.7-5.3-6.1-9.6-10.7-15.9-15-1-.2-1.6.1-1.8 1.1.4 2.1 1.7 4.1 2.3 5.7.9 2.6 1.8 4.3 1.8 6 0 .6-.6 1-1.1.9-6.1-1.4-11.7-2.1-15-8.1-3-5.4-5.3-11.2-7-17.4Zm9.2-32.2c0 .2 0 .3-.3.3l-9.5-2.7c-.6-.2-.9-.8-.6-1.3.9-2.3 1.8-4.1 1.3-6.3 0-.2.1-.4.4-.4 2.2.3 4.7 1.2 7.3 2.7.6.3.9.9.8 1.6-.2 2.1 0 4.2.7 6.1Zm.4 2.8c.2 0 .3.3 0 .4-1.9.8-4 1.2-6 .1-2.2-1.2-3.9-2.3-5.9-1.9-.3 0-.5-.2-.4-.4 0-.6.5-1.3 1.2-2.3.1-.2.4-.1.4 0 .3.8 1 1.5 2.1 2 2.4 1 5.2 1.7 8.6 2Zm2.6 1.3h.2c2.2.1 3.7 3.9 3.5 8.6v1.6c-.1.9-.8 1.5-1.7 1.5l-4.9-.2c-.9 0-1.5-.8-1.5-1.6v-1.6c.3-4.6 2.2-8.3 4.4-8.2Zm-16.6 8.4c0-.2.2-.3.3-.2l1.8 1.5c.3.2.6.4.9.7 1.8.9 3.5 1.8 5.3 2.7 3.2 1.6 6.6 2.2 10.2 2 .2 0 .4.2.3.4-2.3 4.7-.5 9.9 1.4 15.8 0 .2-.2.4-.3.3l-2.6-1.3c-.1 0-.2-.1-.4-.2-5.1-1.3-9.8-3.8-14.1-7.4-.4-.3-.7-.8-.8-1.4l-2.1-13Zm2-9.4c2.1 2.1 5 3.3 8.7 3.5.1 0 .2.2.2.3-1.3 2.4-1.5 4.9-.7 7.6 0 .2-.2.4-.4.3l-8.5-4.9c-.6-.3-1-.9-1.1-1.5v-.4c0-.2.1-.3.3-.2l4.5 3c.2.1.4 0 .5-.1.1-.2 0-.4 0-.6l-2.4-1.6c-1-.7-1.6-1.7-1.8-2.8l-.3-1.9c0-.7.7-1.1 1.2-.6Zm-37.2-130.9c0-.2.3-.2.3 0 1.6 6.5 2.7 10.8 3.2 12.9.9 3.6 2.3 6.3 4.4 9.2 2.3 3.1 4.5 5.7 6.7 7.9.2.2.4.3.6.5l2.1 1.4c.2.2.5.3.6.6.3.3.6 1.3 1.1 2.8 1.8 6.5 7.1 23.5 15.8 51.1.3 1 .6 2.2.9 3.4.8 3.8.5 8.4.7 11 .3 3.9 4.7 7.4 7.9 9.4 3.7 2.3 7.5 4.5 11.5 6.6.3.2.7 0 .8-.2l.2-.3c.4-.6.2-1.4-.4-1.8-3.9-2.1-6.8-3.7-8.5-4.8-4-2.4-9.5-6.1-9.4-11 0-3.3 0-5.6-.1-7.1-.1-1.3-.7-3.6-1.8-6.8-5.1-15.8-10.6-33.7-16.4-53.7-.1-.3-.1-.7 0-1.1.6-3.4.7-7.2.3-11.3 0-.3 0-.6-.2-.9-1.4-5-2.1-7-2.8-11.8-.6-3.6-2.2-8-1.8-12.1 0-.3.2-.5.4-.6.6-.3 1.3-.4 2.3-.3.5-.2 1.3-.1 2.2.1 5 .7 10 2.3 15 4.7 9.9 4.8 18.2 10.5 24.9 17 5.8 5.6 9.7 9.4 11.5 11.4 1.2 1.3 2.5 2.3 3.8 3 .8.4 1.7 0 1.9-.9.4-1.6.8-4.7 1.4-9.1.5-3.7 1.5-6.7 2.4-10.3.3-1 .3-1.8.2-2.4 0-.2.2-.3.3-.1.3.5.5 1.1.6 1.8 3.6 23.9 4.9 34.4 8.2 50.5.5 2.3 1.7 6.3 3.6 12.1 1.2 3.6 3.1 7.6 5.7 12.1 1.5 2.5 1.8 3.9 1.9 6.7.2 4.1 0 7.5-.6 10.3v2.8c0 .2-.2.2-.2 0-2-4.3-5.5-5.5-10.4-3.6-2 .8-4.5 1.9-7.6 3.3-.2 0-.4.3-.5.5-2.6 5.9 7.2 10.3.7 15.1-4.3 3.2-8.4 4.7-13.9 6.7-2.3.8-4.8 1.4-7.6 1.8-2 .3-5.1.9-9.3 1.7-.5.1-1-.2-1.2-.6-1.1-2.6-.6-5.3-.5-8-1-3.1-8.2-5.2-11.1-5.8-3.5-.6-9.4-2.1-9.4-6.9s.3-8.3-1.2-12.7c-1-3-1.9-5.7-2.8-8.1-.2-.4-1-3.2-2.5-8.2-3-10-5.2-16.9-6.7-20.5-3.2-7.6-4.9-12-5.3-13.1-3.3-9-7.5-19.1-10.9-29.6-1.5-4.8-1.9-9.7-.9-14.8Zm-50.1-111.3c-4.8-7.8-7.1-16.2-7.1-25.4 0-.2.2-.4.5-.4 8.1 2 16.8 1.1 28.6 1.4.2 0 .4.1.6.3 1.2 2 1.7 4.5 2.2 6.6.7 3.3.4 7.7.9 10.6.6 2.8 1.1 5.5 1.6 8.3 0 .4.3 1 .8 2.1 0 .2-.1.3-.3.2-4.3-2.6-7.8-5.9-10.4-9.9-4.2-6.4-6.5-10.7-8.5-12.8-.6-.2-1.1-.1-1.4.2-.5.5-.6 1-.4 1.4 2.4 4.8 5.9 10.3 10.5 16.5 1.8 2.4 4.5 4.9 8.3 7.3 1 .6 2.2.9 3.4 1.1.2 0 .4.2.5.5.1 1 0 2-.4 3 0 .3-.3.4-.6.4 0 0-3.2.3-9.5.8-1.4.1-2.6-.2-3.7-.9-4.7-2.9-8.5-5.3-11.3-7.2-1.7-1.1-3-2.5-4-4.2Zm11.5-32v-.3c-.5-2.8-.6-4.6-.4-5.4.6-2 1.5-4.5 2.6-7.5 0-.1.3-.1.3 0l7.7 17.8c.1.3-.1.5-.4.5-1.2-.3-2.5-.4-4-.3-6.9.3-14.1.1-21.5-.6-1.3-.1-2.1-.2-2.5-.4-.2 0-.4-.3-.4-.5 0-1.7.3-3.5.8-5.4 2.3-9.2 6.7-17.3 13.2-24.5 0 0 .2-.2.2-.3l.7-1.2c.1-.2.4-.2.5 0 1.8 4.5 3.1 7.8 3.8 9.7.5 1.2.4 2.3 0 3.4-1.2 2.8-2.2 5.2-2.8 7.1-.8 2.4-.9 4.9-.5 7.6.8.5 1.6.7 2.3.6.2 0 .3-.2.3-.4Zm-17 40.4c-4.6-2.6-10.8-6-11.8-10.5-1.2-5.2-1.8-11.5-1.7-18.9 0-1.2 0-2.2.3-3.1.1-.8.9-1.4 2.3-1.6 2.4-.4 4.5-.4 6.2-.1.2 0 .4.3.4.5-.2 7.7 1.4 15.2 4.8 22.5 1.2 2.7 3.2 5 4.9 7.3.2.3.2.7-.1.9l-4.3 3c-.3.2-.6.2-.9 0ZM69 757.2c-5.5-11.3-9.2-23-11-35.2-1.2-8.1-.6-16.6 2.9-24 .4-.9 2.2-4.4 5.3-10.6 1.8-3.7 3.3-8.1 4.5-13.1.3-1.5.4-4.1.3-7.7-.1-3.7-.1-5.8-.2-10.1 0-.2.2-.5.4-.5 4.4-.3 7.5-.6 9.4-1 4.5-.8 7.9-1.2 10.2-1.2 2.5 0 4.3 2.3 5.7 3.9.5.5.7 1.3.7 2-.3 4.5-.2 8.9.4 13.1.3 2.7.7 7.9 2 11.1 2.2 5.1 7.4 7.7 12.1 9.9.2 0 .2.3 0 .5-4.1 4.8-8.6 10.3-13.4 16.6-2.7 3.6-4.1 9-4.9 11.6 0 .2-.4.3-.6 0l-.2-.3c-.2-.2-.5-.4-.8-.4H78.1c-.6.2-.9.6-1 1.1-.1.8.5 1.5 1.4 1.6 9.2.2 13.9.2 14 .1 0 0 .1 0 0 0l-.7 3.2c0 .1-.1.2-.3.2-4.4 0-8.5 0-12.2-.2-.9 0-1.8-.8-2.7-.2-.4.3-.8.7-.9 1.2.3 1 .8 1.5 1.3 1.6 4.2.9 9.8.4 13.8.6.2 0 .4.2.3.4-1 4.1-1.4 8.4-1.3 13 .1 2.6-.3 8-1 16.3-.5 5.4-3.4 8.7-8.8 10.1-.8.2-1.7 0-2.3-.7-3.6-4-6.5-8.4-8.8-13.1ZM67.2 669c.1-.7.4-1.4.8-1.9.1-.2.4 0 .4.1-.5 5.1-1.7 10.1-3.5 14.9-1.5 3.9-2.9 6.3-5.4 11.1-4.8 9.2-6.4 18.7-4.7 28.7 2.3 13.3 6.4 26.2 12.5 38.8 2 4.2 4.7 7.8 8.2 11v.3s-.2.1-.3 0c-2.4-1.2-4.3-2.9-5.7-4.9-6.1-8.6-10.5-19.8-13.9-30.3-2.2-6.8-3.4-14.3-3.5-22.4 0-6.6 1.6-13.2 4.9-19.5 2-3.9 4.5-8.9 6.3-12.6 1.7-3.4 3-7.8 3.9-13.4Zm4.6-43.9c-1.1 3.1-1.8 5.4-2 6.8-1.7 9.6-2.3 19.6-1.9 30.1 0 .4-.3.8-.7.8-2.5.5-4.9.7-7.7.2-3-.5-5.3-.7-7-.7-.2 0-.4-.2-.4-.4-.1-8.9-.3-17.5 1.8-25.3.9-3.5 1.6-5.7 4.5-7 5.1-2.2 8.5-3.7 10.3-4.4.8-.3 1.8-.5 3-.5.2 0 .3.2.2.3Zm42.4-6c-1.8 1.8-3.3 3.8-4.7 6.1-4.8 7.8-8.5 16.2-10.9 25.2-.4 1.4-.5 2.9-.7 4.4 0 .2-.3.3-.5.2-1.3-1.3-3-3.9-5.2-4.2-1.5-.2-3.2-.1-5.2.2-4 .6-8.8 1.3-14.5 2.1-.5 0-1 .4-1.4.4-.2 0-.5-.2-.5-.5 0-8.1 1-16 2.9-23.6.3-1.1 1-3 1.6-4.3 1.4-3 6.8-5.2 10.2-6.1 6.5-1.7 12.7-2.5 18.6-2.4 1.3 0 4.6.8 10 2.2.2 0 .2.3.1.4Zm10.9 1 .9-.3c.4-.2.8.4.6.8-1.5 2.1-4.9 4.9-6.8 7.5-5.6 7.8-9.9 16.9-10.6 26.5 0 .1-.2.3-.3.2-2.1-.5-4.2-.6-6.1-.5-.3 0-.5 0-.7.2-.3.2-.5.3-.6.3-.2 0-.4-.2-.4-.4 2.2-11.5 6.7-22 13.5-31.4.5-.7 1.4-1.6 2.6-2.7.3-.2.7-.4 1-.4l6.6.3h.4Zm-27.4-93.5c-3-10.9-5.2-20.5-6.8-28.8-.9-4.9-1.6-8.1-1.9-9.8-.7-3.5-1.1-6.7-1.2-9.6 0-5.8 0-10.3.4-13.5 0-.4-.2-.9-.5-1.1l-2.9-1.6c-.3-.2-.5-.5-.6-.9-.2-3.8 0-8.3.6-12.6.5-3.1.9-5.2.9-6.1 0-.2.3-.4.5-.3 2.6 1.2 5.3 1 6.5-1.8.6-1.5 1.7-.8 3.1-.8.2 0 .4 0 .6.1.1 0 .2.2.2.4l-.5 20.3c.2 1 .2 1.9 0 2.7l2.6 14.3c0 .5.1 1.1 0 1.7-.3 4.6.1 9.2 1.3 13.8 2.9 10.7 6.9 21.1 12.2 31.2 1 1.9 1.7 4 2.2 5.9 4.9 18.8 10.5 37.6 16.9 56.4 2.5 7.3 6.4 17.8 11.7 31.7 5 13.1 9 23.6 12 31.6 2.8 7.4 4.7 13.9 5.8 19.4.5 2.6.3 5.5-.5 8.6v5.3c0 .2-.2.4-.4.2l-4.6-5c-.5-.5-1.3-.3-1.4.4-.1.7.2 1.5.9 2.4l5.6 5.7s.2.2.2.3c1.2 2.1 1.6 7.4.8 9.5-.2.4-.2.7-.2 1.1 0 .3 0 .6.2.8 2.9 4.2 5.1 7.3 3.9 12.7-.5 2.1-1.1 4.1-2 6-1 2.2-1.6 3.7-1.4 5.7.3 3.3.9 6.9 1.7 10.7 2.4 11.3 5.9 26.7 10.5 46.3.4 1.6.7 2.7.9 3.3.2.3 0 .8-.5.8l-6.9.5c-.7 0-1.1.8-.8 1.4l1.6 3.1v.4h-.4c-.7-.6-1.1-1.2-1.3-1.8-5.2-13.9-9.5-26.9-12.1-40.8-1.6-9-1.5-15.5-1.8-27-.1-3.4-.4-6.3-.8-8.8-1.2-7-2.7-13.8 0-20.2.3-.8.3-1.7-.1-2.5-.3-.7-1.2-2.3-2.6-5-.7-1.3-1.2-3.3-1.5-6.2-.4-3.6-.7-7.1-.9-10.6 0-.5-.1-1.1-.3-1.6-1.5-5.2-2.8-9.1-3.9-11.8-5.2-12.2-8.8-21.2-11-26.9-5-13.4-12.4-34.6-22.2-63.6-.8-2.4-1.6-6.2-2.8-8.2-3.5-5.6-6.5-10.6-9-15-.2-.3-.5-1.1-.9-2.4v-1c1.1-3.4 1.3-6.6.4-9.7ZM87.1 417.7c.3 3.5.6 7.3.8 11.3 0 1.9.9 5 2.3 9.2.2.8-.3 1.6-1.2 1.5-1 0-1.8-.7-2.1-1.6-2.2-7.7-3-15.6-2.6-23.8 0-.4.3-.7.7-.8l2.4-.3c.2 0 .4.2.3.4-.5 1-.7 2.3-.6 4ZM83.3 483c0-.5.3-.9.8-.9h.4c.6 0 1.1.4 1.2 1 1.6 7.6 3.3 16.1 5.2 25.6 1.2 5.9 2.5 10.7 3.6 15.4.8 3.5 1 5.6 1 9.6 0 .2-.2.4-.4.3 0 0-.2-.2-.3-.4-6.8-15.8-10.1-33.7-11.5-50.7Zm.1-18h.7c.3 0 .6.2.6.6l.3 12.6c0 .3-.3.6-.6.6h-.7c-.3 0-.6-.2-.6-.6l-.3-12.6c0-.3.3-.6.6-.6ZM16.9 271.8c.2 0 .4 0 .4.2 1 2.8 2.1 5.5 3.3 8 8.3 17.9 17.7 34.7 29.6 50.7 7.1 9.5 14.7 18.5 22.9 27.1l7.2 7.2c6.8 6.3 14 12.2 22.9 15.6 3.7 1.4 8.7 1.6 12.2 1.3 9.9-.9 19.6-3.4 29.6-6.2 10-2.8 19.9-7.1 29.1-11.4.4-.2.8 0 1 .3l.5.9c.9 1.5 2.2 2.5 3.7 2.9 2.5.6 4.9 1 7.4 1.2.5 0 .9.4 1 .9 1.8 9.7 2.3 19.5 1.6 29.4 0 1.3 0 2.4.6 3.5.2.3-.1.7-.4.6-6.1-.8-12.6-2.3-19.5-4.3-8.8-2.7-17.1-7.3-25.6-11.6-.5-.2-1 0-1.2.4-.4.7-.3 1.5.2 2.4 9 5.5 18.6 9.8 28.6 12.8 1.7.5 3.4.6 5 1.2.3.1.2.6 0 .6-6.1.3-13.8.7-23.1 1.3-2.6.2-5.4 0-8.4-.6-3.6-.7-7.8-1.5-12.5-2.6-11.6-2.6-23.5-6.9-33.6-13.3-.4-.3-.9-.5-1.3-.8-7.4-5-14.2-10.2-20.1-15.5-4-3.7-8.1-7.4-12.1-11.2-.5-.5-1.4-.2-1.5.6v.3c.4.6.6 1 .7 1.1 7.2 7.6 15.2 14.8 24 21.6 5.8 4.4 10.7 7.7 14.7 9.9 8.4 4.5 18.5 8.1 30.2 10.7 1.5.3 3.2.3 4.6.7.2 0 .2.4 0 .4-5.6.4-11.7.6-18.4.6-2.5 0-5.3-.3-7.4-.8-8.5-1.8-17.1-3.5-25.7-5.1-2.6-.4-3.5.1-3 1.7.6.7 1.4 1.1 2.5 1.4 8.7 1.9 15.5 3.2 20.3 3.8 0 0 .1 0 .1.1v.2c0 .2-.1.3-.3.3-3.6 0-6.7.2-9.4.4-3.6.3-6.5.3-8.7 0-4-.5-9.7.7-13.8-.6-4.1-1.4-6.9-3.9-8.3-7.5-1.8-4.5-3.3-9.4-4.4-14.6-2.2-9.9-4-19.3-5.3-28-.1-.8-.4-1.6-.8-2.3-5.8-9.1-11.5-19-17.2-29.8-5.7-10.6-10.7-21.1-15-31.5-1.8-4.2-3.1-8.8-4.1-13.9-.4-2.1-.8-3.8-1.3-5.2-1-3.1-1.6-4.8-1.7-5.1 0-.2 0-.4.2-.4Zm162.9 90c-.4.4-.8.9-1.1 1.4-.1.2-.3.2-.6.1l-.2-.2v-.3c.4-.7 1-1.2 1.7-1.4.2 0 .3.2.2.3ZM10.5 223.2c.5-6.5 2.8-12.3 7-17.2 2-2.3 3.9-4 5.8-5 7.9-4.1 17.8-1.9 25.7.3 7 2 13.4 6.6 19.2 12.4 3.1 3 5.4 5.9 6.9 8.6 3.7 6.3 5.9 10.2 6.5 12 1.4 3.5 3 7.5 4.8 12.2 0 .1-.1.2-.2.1-8.5-8.4-18.6-17.8-30.5-21.6-1.2 1.1-.8 2.2 1.1 3.2 6.7 3.7 12.3 7.5 16.7 11.2 4 3.4 7.9 7 11.7 10.8 2.5 2.3 4.4 5 5.6 8.3 0 0 0 .2-.2.1-3.1-2.1-6.4-4-9.8-5.5-7.5-3.4-14.3-6-20.6-7.9h-1.1c-1.5 1.3-.5 2.5.9 3 12.3 4.1 24 9.7 34.9 16.9.8.5 1.5 1.2 2 1.9 0 .1 0 .3-.2.3-3.8.2-7.5.2-11.1 0-2.1-.1-3.6 0-4.5.3-6 2-5.8 7.4-2 11.5.1.1 0 .4-.1.4-2.9.7-4.5 2.4-4.6 5-.3 4.1 2.4 5.8 5.7 7.4.2 0 .3.3.3.5-.7 2.7 0 5.1 2.3 7.1 2.4 2.1 5.3 3.2 8.7 3.1.3 0 .5.2.5.5-.2 3.2 1.2 5.5 4 7 .2.1.4.2.7.2h1.2c.2 0 .4.3.2.4-3.3 3.5-6.3 7.2-9.2 11.1-.4.6-.6 1.2-.5 1.9.3.5.7.9 1.3 1.3.8 0 1.4-.4 1.8-1.1 2.9-4.2 6.1-7.9 9.7-11.3.5-.5 1.2-.8 1.9-1l7-1.4c.2 0 .3.1.2.3-1.3 4-2.2 7-2.9 9-1.1 3.4-2.7 5.7-4.8 9-.8 1.2-.8 2.2-.2 2.9.4.4 1 .4 1.5 0 5.5-5.5 8.5-13.9 9.2-21.4 0-.1.1-.2.2-.2l6.8-1.1c.3 0 .6.1.7.4 2 7.6 1 14.9-1.8 22.2 0 .4 0 .7.2.9 0 .2.3.3.5.3.4 0 .8-.1 1.2-.3.9-1.5 1.6-3.1 2.2-4.8 2-6.4 2.3-12.6.9-18.7 0-.2 0-.4.3-.4 1.1-.2 2.6-.4 4.3-.5 9.3-.7 17.6-1.4 24.9-2.2 6.5-.7 14-2.3 22.6-5 1.3-.4 2.8-.7 3.9 0 4.3 2.8 8.3 6.4 12 10.8 3.4 4 4.4 7.5 5.1 12.3 0 .5-.1.9-.5 1.2-6 5.3-12.1 10.2-18.2 15-2.9 2.2-7.8 5.3-14.8 9.2-.6.4-1 .8-1.1 1.2-.2.6.3 1.3 1.5 1.8 2-1.1 3.9-2.2 5.8-3.2 10.3-5.5 19.2-13.1 28.1-20.5.1-.1.4 0 .4.2v1.5c.3 1.5.4 2.9.1 4.2.3 4.4.2 8.6-.5 12.7 0 .4-.3.7-.6.9-8.4 4.3-15.5 7.8-21.1 10.8-2.5 1.3-5.2 2.6-8 3.9-7 3.1-12.7 5.7-19 7.7-3.7 1.2-7.4 2.3-11.1 3.3-6.9 1.9-13.9 3.3-21 4.1-7.1 1.4-13.6.3-19.5-3.4-7.1-4.5-14.2-10.3-21.1-17.6-15.9-16.8-30.1-35-41.6-55.4-8.4-15.4-15.8-31.7-21.1-48.5-.9-3-1.4-6.5-2.1-9-1.8-6.7-2-14-1.6-20.6Z" class="st0"/><path d="M149.8 18.3c.7.9 1.3 1.5 1.9 1.7 1.8.7 8.3 1.8 9 4.7.2.7-.2 1.5-.9 1.9-2.8 1.6-6.2 3.2-10.2 4.7-2.4.9-4.9 1.1-7.4 1-4.6-.3-9.1-.7-13.6-1.4-.5 0-1 .2-1.4.4-1.1 2 .8 2.8 2.5 3.1 5.2 1.1 10.3 1.6 15.3 1.7 2.2 0 5.7-.8 8.2-1.8 4-1.6 8-3 10.5-6.1 2.3-2.8-.2-7.2-2.7-8.8-1.6-1.1-3.5-1.8-5.6-2.2-1.2-.2-2.4-.2-3.5-.1-.7 0-1.4.5-2.1 1.2Zm-53.4 86.5c.5.8 1 1.3 1.5 1.5.4.2.8-.2.6-.6-1-2.2-1.6-3.9-2-4.9-1.5-4-1.6-9.9 1.7-13.2.7-.7 1.3-1.2 1.7-1.3.3-.1.6-.1.8 0 2.2.9 3.9 2.3 5.2 4 .2.2.1.5 0 .7-1.4 1.2-3.9 2.4-5.2 4.5-1.4 2.4-.5 5.8 1.1 7.8.3.4 1 .9 2.1 1.8.3.2.5.6.6.9l.4 2.4c0 .6.8.8 1.3.4l.6-.5c.2-.2.3-.4.4-.6.4-1.3 0-2.9-1.4-4.8-.1-.1-.2-.3-.2-.5l-.3-1.1c0-.3-.3-.5-.5-.6l-1.8-.7c-.2 0-.4-.3-.4-.5-.3-2.4 1.7-3.5 3.6-5.1.3-.2.4-.5.5-.8l.2-1.9c0-.2.3-.3.4 0 1 1.8 2.1 2.9 3.4 3.1-.6-1.5-1.2-2.8-1.9-4-1.7-2.8-3.9-5-6.7-6.5-1.8-1-3.4-.7-4.9.9-5.6 6-5 13.3-.6 19.8Zm53.3-11.7c1.2 0 2.5-.2 3.8-.5 1.7-.4 2.9-.6 3.8-.6 2.8.2 5.5 1 8.3 2.5 1.3.3 2.7.8 4.4 1.6 1.5.7 2.8.7 3.9-.2.6-.5.5-1.5-.2-2.1-3.1-2.2-7.5-3.3-11.3-4.8-4.7-1.8-9-1.1-12.9 2.2-.4.4-.6.7-.5 1 0 .3.3.6.7.9Zm7.9 10.6-2.9-.8c-.1 0-.2-.2-.2-.3v-.2c.1-.2.3-.2.4-.2 3.5 1.2 7.7 1 12.6-.8.9-.3 1.6-1 2-1.8l.4-.9c.3-.6-.3-1.2-.9-1-4.3 1.4-7.7 1.8-10.2 1.4-2.6-.4-5-.6-7.1-.5-.5 0-.8.5-.7 1 1.2 3.2 3.4 4.8 6.6 4.7.2 0 .3-.1.3-.3 0-.2 0-.3-.2-.3Zm9.8.3c0-.1-.2-.2-.3-.1-2.2 1.2-4.5 1.6-7 1.2-.4 0-.6.4-.3.6 2.1 1.8 5.1 2.7 7.3.7.7-.6.7-1.6.3-2.3Zm-44.7 5.2-4.7 1.4-.9.8c-.2.2 0 .5.2.4l4.4-1.2c1.2-.8 1.5-1.3.8-1.4Zm-6.5 4.2c0 .6.2.9.4 1 .2 0 .2.3 0 .4-.2.2-.3.4-.3.6 0 .2.2.4.4.4 1.4 0 2.1-.5 2.2-1.3 0-.4.2-.6.5-.7.3-.1.5-.2.6-.2.2 0 .3.3.2.5-.5.6-.9 1.8-1.3 3.6 0 .3-.2.5-.4.7-.4.4-1 .6-2 .7-.3 0-.4.1-.6.3 0 .1-.1.3-.1.4 0 .2.2.3.4.2.6-.3 1-.3 1.3-.3.2 0 .3.4.2.6-.3.4-.7.7-1.3.9-.3.1-.4.3-.5.6l-.2.6c0 .2.1.4.3.3 2.6-.9 4-2.9 4.3-5.8v-.1l1.7-4.1c.1-.3-.2-.6-.5-.4-1.4.8-3 1.1-4.8.8-.2 0-.4.2-.4.4Z" class="st0"/><path d="M118 117c0-.3-.7-.3-1.3 0-.6.2-1 .6-.9.9 0 .3.7.3 1.3 0 .6-.2 1-.6.9-.9Zm3.2 3.1-1.8 2.4c0 .1-.2.3-.2.4-.3 1-1.1 1.8-2.5 2.3-.2 0-.4.2-.5.4-.2.4-.3.7-.3.9 0 .2.3.2.4 0 .4-.7 1.3-1.1 2.5-1.3.2 0 .4-.2.5-.4.4-.8 1-1.8 1.8-3.1.3-.4.5-.9.5-1.5 0-.3-.4-.4-.5-.2Zm-4.1 8.7 2.3-2.3c.1-.1.3-.2.5-.2.3 0 .7-.2 1.2-.6.5-.3 1.1.1.9.7-.5 2-1.5 3.4-3.2 4.4-.2.1-.1.4 0 .4.5.1 1 0 1.6-.5.2-.1.4-.1.5 0 .1.2.1.4 0 .5l-1.9 1.9c-.1.1 0 .3 0 .4l.4.2c1-1.1 1.5-1.8 1.7-2.2.4-.9.9-2.7 1.6-5.5 0-.3.2-.6.3-.8.7-1.2 1.3-2.6 1.7-4.3 0-.3-.3-.5-.5-.2-.5.8-1.1 2-1.7 3.6-.2.6-.8 1.1-1.5 1.1-.9 0-1.8.3-2.6.7-.9.4-1.6 1.3-2.1 2.6 0 .2.2.4.3.2Zm4.8 10.3c.8 0 1.6-.4 2.6-1.3 1.3-1.3.8-3.3 1.6-5 .1-.3.2-.6 0-.9v-.6l1.2-1.8c.1-.2.1-.3.1-.5l-.2-4.6s0-.2-.2-.2h-.4c-.2 1.2-.2 2.5 0 3.9 0 .3 0 .6-.1.9-.3.6-.7 1.2-1.3 1.8-.2.2-.3.6 0 .8h.1c.3.2.3.5 0 .7-.9.9-1.3 1.9-1.1 3.2.2 1.1-.4 2.1-1.4 2.6-.5.2-.8.5-1.2.7-.1 0 0 .3 0 .3Zm8.6-13.8c0 .8-.3 2.3-.7 4.5-.1.6-.3.8-.6 1.1 0 0-.1.2 0 .3 0 0 .2.1.3 0l1.2-.6c.2-.1.4-.4.4-.6l.4-4.4-.6-.3c-.1 0-.2 0-.2.1Zm.8 14.9c0 .1 0 .3.1.4.2.1.3 0 .4 0 1.9-2.8 2.9-5.6 3-8.4 0-1.1-.3-1.8-.9-2.4-.2-.1-.4 0-.4.2.4 3.7-.4 7.2-2.3 10.3Zm-2.4-4.4v.1c.4.2 1.3-.7 2-2v-.3c.8-1.3.9-2.6.5-2.8l-2.4 5Zm46.1-4.2c0 2.7-.5 4.8-1.2 6.4 0 .3.2.3.6.3.2 0 .4-.2.6-.3 2-2.4 2-4.5 0-6.4Zm-9.6 5.9s.5.1 1.5.1c.2 0 .4 0 .6.2 1.7 1 3.2-1.2 3.9-2.3.1-.2.3-.2.5 0 .4.6 0 1.4-1.3 2.3-.2.1-.1.5.1.5.7 0 1.5-.4 2.4-1.4.1-.1.2-.3.2-.4l.2-3.7c0-.3-.2-.5-.4-.5s-.5 0-.6.3l-.8 2.2c0 .2-.3.2-.4 0-.2-.3-.4-.5-.4-.7 0-.1-.3-.2-.3 0-.8 1.8-1.6 3-2.5 3.7-.1.1-.3 0-.5 0-.1-.1-.1-.3 0-.5.6-.7.9-1.1 1-1.2.6-.8 0-1.9-1-1.9-.6 0-1.1.5-1.4 1.4 0 .1 0 .3.1.4s.2 0 .3 0c.2 0 .4 0 .5.2 0 .2 0 .5-.2.6-.7.6-1.1.8-1.3.7-.1 0-.2 0-.1.2Zm-42.5-4.6c0-.2-.2-.3-.4-.2l-.3.2c.2 1.9-1.3 2.6-2.5 3.5-.2.1 0 .4.1.3 2.1-.5 3.1-1.7 3.1-3.8Zm41 4.2c.7-.3 1.3-.6 1.7-1 .2-.2.2-.4 0-.6-.2-.2-.3-.9-.5-2.1 0-.6-.9-.8-1.2-.3-.3.5-.5 1-.7 1.5 0 .3.1.6.4.6.3 0 .4.3.3.6l-.4 1.1c0 .2.1.3.3.3Zm-5.8-.8c0 .3.1.5.4.6h.3c.3.1.5 0 .6-.3l.6-2.8c0-.3-.1-.5-.4-.6h-.3c-.3-.1-.5 0-.6.3l-.6 2.8Zm2.9-2.3c.1 1.1.1 1.9 0 2.2-.3.7.6 1.2 1.1.7.3-.3.6-.8.8-1.5 0-.3 0-.5-.3-.7-.4-.2-.5-.5-.5-1 0-.2-.1-.4-.3-.4h-.6c-.2.1-.3.3-.3.6Zm-5.8 2.6v.2c.5.3 1.2 0 1.5-.5l.3-.5c.4-.6.2-1.3-.2-1.6h-.2l-1.4 2.4Zm-.5-2.1-.4.4c-.2.2-.5.4-.8.3-1.1-.2-1.4.8-1.9 1.6-.7 1-1.1 2-1.4 2.9 0 .2.1.3.3.2 1.2-1.1 2-2.4 2.6-3.8 0-.2.2-.4.4-.5.5-.3 1.2-.2 1.5-.9 0-.2-.1-.3-.3-.2Zm.1 2c-.2-.2-.9.5-1.6 1.4-.7.9-1.1 1.8-.8 1.9.2.2.9-.5 1.6-1.4.7-.9 1.1-1.8.8-1.9Zm-17.3.1c-.4.2-.6.4-.8.8-1.3 3.3-2.4 5.5-3.3 6.6-.1.1 0 .4.2.3 1.1-.3 1.9-1.2 2.3-2.7.7-2.4 1.3-4 1.8-4.8 0-.1 0-.3-.2-.2Zm12.5.5c-.2-.1-.9.7-1.5 1.9-.6 1.1-.9 2.1-.7 2.3.2.1.9-.7 1.5-1.9.6-1.1.9-2.1.7-2.3Zm-27.8 4.4c.5.8 1.2.9 1.9.5.3-.2.7-.2 1 0h.2c.3.3.6.2.8 0 1.1-1.4 1.6-2.8 1.5-4.2 0-.2-.3-.3-.4-.1-.4.6-.7 1.3-.8 2.4-.1.8-.8 1.4-1.6 1.3h-2.4c-.2-.2-.3 0-.2.2Zm18.6-2c-.2-.1-1 .8-1.8 2.2-.8 1.3-1.3 2.5-1.1 2.6.2.1 1-.8 1.8-2.2.8-1.3 1.3-2.5 1.1-2.6Zm-17.1 3.9c-.3.3 0 .8.4.7 1.9-.3 3.8-1.1 5.4-2.2v-.5c-.2 0-.3-.1-.4 0l-2.5 1.6c-.1 0-.2.1-.4 0-1.2-.2-2.1 0-2.6.5Zm19.4-1.9c-.2-.1-.9.6-1.5 1.6-.7 1-1 1.9-.8 2 .2.1.9-.6 1.5-1.6.7-1 1-1.9.8-2Zm-15 6.9c1.5.1 4.1-.7 3.6-2.8-.4-1.5-.3-2.6.4-3.3v-.2h-.2c-.8 1-1 2-.6 3v.5c-.9 1.3-1.9 2.1-3.2 2.3 0 0-.1 0-.1.2 0 0 0 .2.2.2Zm-.7-1.8c.4.2 1.2-.4 1.7-1.3v-.2c.6-1 .7-2 .3-2.2l-2 3.7Zm6.7.1.4-.4c.1-.1.3-.1.4 0l.2.2c.1.1 0 .3 0 .3-.7.5-1.5 1.4-2.3 2.7-.2.3 0 .6.3.6.2 0 .4 0 .6-.2 1.4-1.2 1.9-2.9 1.6-4.8 0-.2-.2-.2-.4-.1l-1.2 1.3c-.1.1 0 .3 0 .4.1.1.3.1.4 0Zm0 8c-.2.2.1.5.3.4 1.8-1 3.3-2.4 4.5-4.2.1-.2.1-.5 0-.7-.8-1.1-.9-2.5-.1-3.9.1-.2 0-.4-.3-.4-.4 0-.7.3-.7.6-.2 1-.3 2.3-.3 3.9 0 1-.5 2-1.4 2.4-.7.4-1.3 1-2 1.9Zm3.5 2.7c-.1.2.1.4.3.3l1.3-.9c.2-.1.4-.4.5-.6l3.6-9.3c0-.1 0-.3-.1-.3h-.3l-2.1 3.3-.3.6c-.6 2.5-1.6 4.8-2.9 6.9Zm1 1.4s.4.2 1.1.3h.7c.6-.3 1.1-.5 1.6-.5.2 0 .3 0 .4.3s0 .3-.2.4c-.5.2-.9.6-1.3 1.2-.2.3.1.5.4.4.5-.2.9-.6 1.2-1 0-.1.1-.3.1-.4 0-.3 0-.6.4-1 .2-.2.2-.6 0-.8l-.2-.3c-.1-.2-.2-.4 0-.6l3.2-6.3c.1-.3 0-.6-.3-.6s-.5 0-.6.3c-.7 2.1-.8 3.2-1.9 4.6-.4.4-.7 1.1-.8 1.9 0 .3-.2.5-.4.7-1 1.1-2 1.5-3 1.3-.1 0-.2.1-.1.2Zm-4.7-4.9.2-.2v-.2c-.4-.4-.4-.7 0-1 .6-.6 1.1-1 1.4-1.4.1-.2.1-.4 0-.5-.1-.1-.3-.1-.4 0l-2.4 2.2c-.3.3-.1.8.3.8s.6.1.8.3h.3Zm12.7 2.6h.2c.2.1.3.4.2.7l-1.2 1.9c-.1.2 0 .5.3.5.8 0 1.3-.7 1.4-1.9v-.4c-.4-1.2-1-2.2.1-3.1.6-.4 1.1-1.1 1.6-2 0-.1-.1-.3-.2-.2l-2.3 1.9c-.1.1-.2.2-.3.4-.2.5-.2 1.1-.2 1.8 0 .3.2.5.5.5Zm-9-2.4c-.3-.1-.9.4-1.3 1.2-.4.8-.5 1.6-.2 1.7.3.1.9-.4 1.3-1.2.4-.8.5-1.6.2-1.7Zm12.1 11.5v-.2c0-.2-.2-.3-.4-.2-.6.2-1 .2-1.2 0-.1-.1-.1-.3 0-.4l1.5-1.5c.2-.2.3-.5.3-.8-.2-1.7.4-3.2 1.5-4.5.2-.2.2-.5.1-.7l-.7-1.8s-.1-.1-.2-.1c0 0-.1 0-.1.2v1.5c0 .3 0 .6-.2.8-.9 1.2-1.3 2.4-1 3.6 0 .3 0 .6-.2.8l-1.8 1.8c-.2.2-.5.1-.6-.1l-.2-.5c0-.2-.3-.2-.4 0-.3.3-.4.7-.4 1.1 0 .2.2.4.4.4h.9c.2 0 .4 0 .6.1.3.3.9.7 1.9 1 .2 0 .3 0 .3-.3Zm3.4-7.1v2.3l-2.4 5.2c0 .2 0 .3.2.4l.4.2c.2 0 .4 0 .5-.2l2.1-5.3v-.2c0-.9 0-1.7-.4-2.4-.1-.2-.4-.2-.4 0Zm-8.2 1.1c-.9.2-1.8.8-2.7 1.8v.3h.3l2.5-1.9c.1 0 0-.3-.1-.2Zm-1.3 3.5v.1c.4.4 1.2.1 2-.6l.7-.7c.7-.7 1-1.6.6-1.9h-.1l-3.1 3.1Zm8.6 3.4c-.1 0-.1.2 0 .3h.2c0 .1 0 .1.1.1 1.4-1.1 2.1-2.6 2-4.6 0-.2-.2-.3-.3-.1l-.7 1.1v.2c.2 1.5-.2 2.5-1.2 3.1Zm-.3 60.4c1.3 2.2 4 3 5.9 1.8 1.9-1.2 2.4-3.9 1.1-6.1-1.3-2.2-4-3-5.9-1.8-1.9 1.2-2.4 3.9-1.1 6.1Zm1.9-3.8c.8-.7 2.1-.4 2.9.6s.8 2.3 0 3c-.8.7-2.1.4-2.9-.6-.8-1-.8-2.3 0-3Zm56.4 10.4c2.8 5.9 4.5 11.2 5.3 15.7.7 3.9 1.4 7.9 2.1 12 .2 1.2.6 2.5 1.1 3.9 0 .2.4.3.6.1 0 0 .2 0 .4-.1-1.1-9.9-2.4-19.6-5.8-28.9-.3-.9-1-2.2-1.9-3.8-.1-.2-.3-.3-.5-.2-.6.2-1 .6-1.2 1.3Zm1.5 24.9c.8 6.1.9 12.9 1.2 18.9 0 .3.3.6.6.5.4 0 .6-.4.7-.9.4-1.5.5-3.2.5-5.3 0-5.1-.3-9.7-.8-13.5-.5-3.9-1.4-8.3-2.7-13.3-.5-2-1.1-3.6-1.9-5-.2-.5-.5-.7-.9-.7-.3 0-.6.3-.5.6 1.3 5.9 3 12.4 3.8 18.6Zm-14.4 3c.7 5.9 1 11.7.9 17.5 0 .5.6.7.9.3.8-.9 1.2-1.9 1.2-3 .2-4.6 0-9.7-.6-15.1-.7-5.4-1.7-10.4-3.1-14.8-.3-1.1-1-1.9-1.9-2.6-.4-.3-.9 0-.7.5 1.6 5.6 2.7 11.3 3.4 17.2Zm-13.7-2.2c.8 3.9 1.6 8.7 2.4 14.3 0 .6.8.9 1.3.4.4-.4.5-1 .5-1.7-.4-5-1.1-9.5-1.9-13.6-.9-4.1-2.1-8.5-3.8-13.2-.2-.7-.6-1.1-1.1-1.3-.6-.2-1.2.3-1 .9 1.6 5.5 2.8 10.2 3.6 14.1Zm22.6 23.6c0 .3.4.5.7.3.4-.4.7-.8.7-1.3 1.1-12-.1-23.7-3.6-34.9-.4-1.2-1-2.1-2-2.4-.5-.2-1.1.3-.9.8 2.9 9 4.5 18.2 4.6 27.7 0 2.7.2 6 .4 9.8Zm-12.5-10.9c0-.3.1-.5.1-.8-.2-8.8-1.8-17.3-4.6-25.6-.4-.6-.8-.8-1-.7-.5.2-.8.8-.7 1.4 2.3 8.3 3.8 16.7 4.5 25.2 0 .6.5 1.1 1 1.2.2 0 .4-.2.6-.7Zm-84.3-6.1c-.5-6.5-2.1-14.4-5.5-20.2-.2-.4-.7-.6-1.2-.6-.4 0-.6.5-.5.9 1.5 3.5 2.4 5.5 3.2 8.5 1.3 4.6 2.5 8.4 3.8 11.5h.1v-.1Zm38.9-7.5c1.6 5.4 2.7 11.9 3.8 12.7.4.3 1 0 1-.5v-1.8c-.5-3.3-1.4-6.9-2.6-11-1.2-4.1-2.5-7.7-3.8-10.7-.3-.6-.6-1.1-.9-1.5-.3-.4-.9-.3-1.1.2-.5 1.2 2.1 7.2 3.7 12.7Zm-5.8 2.7c1.1 4.6 1.6 9.5 2 14.5 0 .3.2.5.4.5.5.1 1-.2 1.1-.7.8-4.6-.2-10.6-1.2-14.9-1-4.3-2.8-10.1-5.6-13.9-.3-.4-.9-.5-1.3-.2-.2.2-.2.4-.1.6 1.9 4.7 3.6 9.3 4.7 13.9Zm-3.6 24.1c0 .3.4.4.6.1.8-1.5 1.1-3 1.1-4.6-.2-9.4-2.5-18.4-5.7-27.2-.5-1.3-1.7-4.6-3.2-4.3-.4 0-.6.4-.4.8 1.6 4.1 3 8.6 4.4 13.6 2.1 7.7 2.8 14.1 3.2 21.6Zm-9.5-17c.8 5.5 1.1 11.3 1 16.9 0 .3.3.5.6.4h.2c.3-.3.6-.6.7-1 .9-5.3.5-11.2-.3-16.5-.8-5.3-2.2-11.1-4.6-15.9-.2-.3-.5-.6-.9-.7h-.2c-.3-.1-.6.2-.5.5 1.8 5.3 3.3 10.9 4.1 16.4Zm-5.1 11.9c.2.2.6 0 .6-.2.2-1.1.2-2.5 0-4.1-.7-7.8-2.2-15.5-4.3-23.2-.2-.6-.6-1.2-1.3-1.4h-.2c-.4-.2-.9.2-.8.6 2 8.2 3.7 17.1 5.1 26.7 0 .6.3 1.1.7 1.5Zm43.6-4.6c.2.2.4.3.7.4 3 .7 5.1-.4 6.2-3.3l-.2-3c-5.1-6.3-11 1.5-6.6 6Zm2.3-5.9c.4-.2 1-.1 1.2.3.4.6.7 1.2.7 1.6 0 .4 0 1-.3 1.7-.2.5-.7.7-1.1.6-1.3-.4-2-1-2.1-1.8-.1-.9.4-1.6 1.6-2.3Zm36.8 64.1.4.7c1.1 1.6 3.3 2 4.8.9l.6-.4c1.6-1.1 2-3.2.9-4.8l-.5-.7c-1.1-1.6-3.2-2-4.8-.9l-.6.4c-1.6 1.1-2 3.2-.9 4.8Zm1.8-1.8c0-.9.7-1.5 1.5-1.5s1.5.7 1.5 1.5-.7 1.5-1.5 1.5-1.5-.7-1.5-1.5Zm-12.3 56.1 1 1.3c1.1 1.4 3.1 1.7 4.5.7l1.1-.8c1.4-1.1 1.7-3.1.7-4.5l-1-1.3c-1.1-1.4-3.1-1.7-4.5-.7l-1.1.8c-1.4 1.1-1.7 3.1-.7 4.5Zm2-1.7c0-.9.5-1.6 1.3-1.7.7 0 1.3.7 1.3 1.6 0 .9-.6 1.6-1.3 1.7-.7 0-1.3-.7-1.4-1.6ZM185 424.5c.1 2.2.3 4.3.7 6.2.6 3.2 4 3.4 6.7 3.2 3.1-.2 6.2-.5 9.3-.7 5.8-.5 9.6-.8 11.4-6.3 1.2-3.7-.1-6.1-3.9-6.9 0 0-.1 0-.1-.2 0 0 0-.2.2-.2 2.2-.2 3.4-1.1 3.5-2.8.2-3.1-1.4-8.7-5.5-8.2-9.8 1.3-15 2-15.6 2.1-4.4.6-6.6 3.2-6.7 7.9 0 1.8.9 2.8 2.7 3 .3 0 .3.4.1.5l-1.7.9c-.6.3-.9.9-.9 1.6Zm7-2.4c-.4-1.5-2.5-1.9-3.2-2.2-.7-.3-1.1-1-1.1-1.8.1-3.3 2.7-4.3 5.7-4.5 4.7-.4 9.1-.9 13.3-1.6.9-.2 1.8.3 2.2 1.1l1.5 2.7c.4.8-.1 1.7-1 1.8-1.4.1-2.9.6-4.2 1.5-.6.4-.7 1.3-.2 1.8l.4.4c.1.1.3.2.5.3l4.4 1.3c.5.1.8.6.8 1.2-.2 2.2-.8 3.8-2 4.7-.1 0-.3.2-.5.2l-18.1 2.1c-.5 0-1-.2-1.2-.7-.5-1.6-.8-3.2-.7-5 0-.5.4-.9.9-1.1 1.3-.4 1.9-.5 1.9-.5.6-.2.9-.8.8-1.5Zm-40.8 23.5c-.2 1.9-.6 3.5-1.3 4.6-1.7 2.9-4.2 5.8-7.4 8.5-2.4 2-5.7 3.8-9.8 5.5-6.8 2.7-14 4.5-21.5 5.5-2.4.3-5.2.6-8.3 1-.8 0-1.3.7-1.4 1.5v.3c0 .7.6 1.3 1.3 1.2 10.8-1.2 21.4-2.8 31.9-7.3 6.8-3 11.1-5.8 15.5-11.5 2.1-2.8 3.2-5.6 3.4-8.4-.4-1.2-1.2-1.5-2.3-.8Zm46.3 52.2v-1.4c-2.2-1.3-4.7-2.2-7.4-2.9-12.9-3.1-26.3-3.3-39.4-2-10.6 1.1-20.9 4-31 8.7-.7.3-1 1-.8 1.7.2.7.8 1.1 1.5.9 3.3-1.1 7.7-3.1 10.8-4.1 9-3 18.5-4.5 28.4-4.5 4.8 0 10 .1 15.6.4 5.6.3 12.5 1.5 20.6 3.7.6.2 1.1 0 1.6-.6ZM156.8 509c-.2.3-.3 1-.3 2.1 8.1-.7 16.2-.9 24.3-.7 7.1.2 14.4 1.7 21.7 4.5.7.3 1.5 0 1.9-.6.4-.6.3-1.3-.3-1.7-1.6-1-4.1-1.9-7.5-2.8-5.1-1.3-10.5-2.2-16-2.6-1.7-.1-6.3-.1-13.8 0-3.8 0-7.1.6-10.1 1.7Zm62.7 177c-1.4 9-4.6 17.2-9.6 24.7-.3.4-.4.9-.4 1.4.1 4.4 1.3 9 3.5 13.8.9.6 1.7.5 2.4 0v-.8c.1-.4 0-.7 0-1-1.2-3.4-3.5-8.1-2.7-11.7 0-.3.2-.5.3-.8 4.8-7.1 7.7-15 8.8-23.7v-2c0-.7-.6-1.2-1.2-1.1-.6.1-1 .6-1.3 1.3Zm-49.9 34.2c.4 0 .9-.2 1.4-.4 7.1-4.2 12.4-10.5 15.8-18.8.3-.6 0-1.3-.7-1.6-.6-.2-1.3 0-1.6.7-2.7 5.3-5.2 9.1-7.6 11.4-2.3 2.2-4.6 4.4-6.8 6.5-.4.4-.8.9-1 1.4-.2.4.1.9.6.9Zm24.5 86.8c-.1 0-.2 0-.3.2 0 .1 0 .2.1.3 6.7 3.3 11.4 5.5 14 6.9 7.5 3.9 14 9.2 19.5 16.1 3.2 4 4.6 7.5 6.2 12.5.3.8.8 1.5 1.5 1.9 3.2 2.1 6.1 2.5 10.3 2 2-.2 5.7-.1 7.3-1.6.3-.3.2-.8-.3-.9-2-.5-4.7.2-6.9.6-2.5.4-8.1-.6-9.7-2.9-.7-1-1.2-2.4-1.7-4.1-.5-2.1-1.6-4.3-3.3-6.5-6.1-8.3-13.8-14.6-23.1-19.1-4.9-2.3-8.6-3.9-11.1-4.7-1.1-.3-2-.5-2.7-.6Z" class="st0"/><path d="M199.7 819.2h-.9c-.5.5-.4 1.3.2 1.6 9.5 4.5 16.8 8.9 21.1 18.9.7 1.6 1 3.3.9 5.2 0 .3 0 .6.2.9.6 1 1.4 1.8 2.3 2.3 5.2 3.1 7.8 4.6 7.9 4.7 6.3 3.7 10.1 11.8 11.5 18.8 1.5 7.6 1.2 15.5-2.1 22.6-.6 1.4-2 3.3-4.1 5.7-1.3 1.6-2.8 3.4-4.5 5.5-.1.1 0 .3.1.4h.4c7.1-4.5 11.3-10.7 12.6-18.4 1.8-10.5-.4-20.7-6.4-30.5-1.1-1.7-2.8-3.4-5.2-4.9-3.4-2.2-6.1-3.8-8-4.8-1.4-.8-2-1.8-2.4-3.6-2.6-12.1-12.2-20.4-23.6-24.3Z" class="st0"/><path d="M225.1 858.8c-.4.1-1.8.3-4.2.6-2.2.3-4.3 1.2-5.8 2.4-.5.4-.7.6-.7.8-.2.7.2 1.4.9 1.7 4.4 1.7 8.2 3.4 11.3 5.1 4.6 2.4 7.7 5.9 9.3 10.5 2 5.7.4 11.7-4 15.5-1.9 1.6-5.2 1.5-7.7 1.1-.3 0-.4-.4-.2-.6 1.1-1.4 2-3 2.6-4.9 1.3-4.3-.3-6.8-4.1-9-3.2-1.8-6.7-2.8-10.4-2.9-.3 0-.5.2-.5.4 0 .3.1.5.4.6 4.4 1.5 6.8 2.2 9.9 4 5.8 3.2 2 8.8-1 12.1-.7.7-.3 1.9.6 2.1 4.1 1 8.9 1.9 12.3-.7 2.1-1.6 3.5-4 4.5-7.2 2.4-8.2-1.4-18-9.2-22.1-2.6-1.4-5.9-2.6-9.1-4.4-1.2-.6-2.5-.8-3.8-.6-.1 0-.3 0-.3-.2v-.2s0-.2.1-.1h1c.2.1.4.1.6 0 3.7-1.7 7.6-2.4 11.6-2.2.6 0 .8-.7.4-1-4.8-4.1-9.2-5.1-16.7-7.6-.9-.3-1.6-.6-2.2-1-.4-.2-.4-.8 0-1.1l3.1-2c.2-.1.4-.3.5-.5 2.4-2.9 2-5.5-1-7.9-2.9-2.2-6.1-4-9.6-3.9-.6 0-.8.9-.2 1.1 3.9 1.6 7.1 2.9 9.6 5.7.5.6.6 1.4.3 2.1-.9 1.9-3 2.7-5.8 4.3-1 .6-1 2 0 2.6l3.5 2.2h.2c.9.4 2.3 1 3 1.1 3.3.7 6.4 1.8 9.3 3.4 0 0 .2 0 .3.1l1.5.2c.1 0 .1.2 0 .2Zm40.9 27.3c-.3-1.3-.6-2.2-1-2.7-4.3-5.7-8.9-13-8.1-20.3.2-2.2.8-5 1.8-8.4-.6-.1-1 0-1.3.6-3.2 5.7-3.7 11.4-1.7 17.1 1.6 4.5 5 8.9 7.9 12.7.5.7 1.1 1.2 1.9 1.5.2.1.4 0 .5-.2v-.2Zm42 81.7c.1 0 .2-.2.2-.3v-.7c-.4-1.4-2.5-2.1-4.8-1.7l-11.2 2.2c-2.3.5-3.9 1.9-3.6 3.3v.7c.2.1.3.2.4.2l18.9-3.7Z" class="st0"/></svg>